<?xml version="1.0" encoding="UTF-8"?>
<svg width="32px" height="32px" viewBox="0 0 32 32" version="1.1" xmlns="http://www.w3.org/2000/svg" xmlns:xlink="http://www.w3.org/1999/xlink">
    <!-- Generator: Sketch 52.4 (67378) - http://www.bohemiancoding.com/sketch -->
    <title>分组 10</title>
    <desc>Created with Sketch.</desc>
    <g id="等级中心" stroke="none" stroke-width="1" fill="none" fill-rule="evenodd">
        <g id="已完成页查看" transform="translate(-43.000000, -386.000000)">
            <g id="分组-10" transform="translate(47.000000, 387.000000)">
                <path d="M1.875,0 L18.5185185,0 L18.5185185,4.74264706 C18.5185185,5.77818096 19.3579846,6.61764706 20.3935185,6.61764706 L25,6.61764706 L25,28.125 C25,29.1605339 24.1605339,30 23.125,30 L1.875,30 C0.839466094,30 -1.11720544e-13,29.1605339 -1.13686838e-13,28.125 L-1.13464793e-13,1.875 C-1.13591609e-13,0.839466094 0.839466094,4.12269097e-16 1.875,2.22044605e-16 Z" id="矩形" fill="#D8D8D8"></path>
                <path d="M25,5.625 L21.4227509,5.625 C20.7348507,5.625 20.4854014,5.55247999 20.2339154,5.41630258 C19.9824293,5.28012516 19.7850616,5.08029034 19.6505654,4.82566071 C19.5160691,4.57103108 19.4444444,4.3184637 19.4444444,3.62196469 L19.4444444,0" id="路径" fill="#D8D8D8"></path>
                <polygon id="矩形" fill="#000000" points="5.68783069 10.7536765 18.6507937 10.7536765 18.6507937 11.6911765 5.68783069 11.6911765"></polygon>
                <polygon id="矩形-copy-4" fill="#000000" points="5.68783069 20.6801471 18.6507937 20.6801471 18.6507937 21.6176471 5.68783069 21.6176471"></polygon>
                <polygon id="矩形-copy-5" fill="#000000" points="5.68783069 15.7169118 21.8253968 15.7169118 21.8253968 16.6544118 5.68783069 16.6544118"></polygon>
            </g>
        </g>
    </g>
</svg>