<?xml version="1.0" encoding="UTF-8"?>
<svg width="32px" height="32px" viewBox="0 0 32 32" version="1.1" xmlns="http://www.w3.org/2000/svg" xmlns:xlink="http://www.w3.org/1999/xlink">
    <!-- Generator: Sketch 52.4 (67378) - http://www.bohemiancoding.com/sketch -->
    <title>intelligent_filled</title>
    <desc>Created with Sketch.</desc>
    <g id="等级中心" stroke="none" stroke-width="1" fill="none" fill-rule="evenodd">
        <g id="等级中心-当前页" transform="translate(-299.000000, -387.000000)">
            <g id="分组-13" transform="translate(303.000000, 387.000000)">
                <ellipse id="椭圆形" fill="#EAC788" cx="11.5384615" cy="9.6875" rx="9.61538462" ry="9.6875"></ellipse>
                <polygon id="星形" fill="#EAC788" points="20.1923077 27.0484379 17.3664171 28.1374261 17.5211482 25.0931717 15.6199206 22.7219489 18.5414404 21.9294844 20.1923077 19.375 21.843175 21.9294844 24.7646948 22.7219489 22.8634671 25.0931717 23.0181983 28.1374261"></polygon>
                <path d="M19.2816067,19.8154313 L18.2112669,21.4716312 L14.7054432,22.4225887 L16.9869163,25.268056 L16.8012389,28.9211613 L20.1923077,27.6143755 L23.308781,28.8153429 C23.4143839,29.6346486 22.9840463,30.4618254 22.1935215,30.8239669 C21.9403219,30.9399584 21.665092,31 21.3865887,31 L2.21881333,31 C1.14876163,31 0.281313334,30.1325517 0.281313334,29.0625 C0.281313334,28.8263246 0.324493987,28.5921392 0.40872544,28.3714949 L3.73712781,19.6527449 C4.01308329,18.9298795 4.69111543,18.4432626 5.4584666,18.408271 C7.17845973,19.6277229 9.27546457,20.34375 11.5384615,20.34375 C13.7955058,20.34375 15.8874301,19.6314849 17.6048756,18.4178837 C18.2767675,18.491803 18.8681755,18.9129454 19.1539729,19.5368173 L19.2816067,19.8154313 Z" id="矩形-3" fill="#EAC788"></path>
                <path d="M5.76923077,8.71875 L6.73076923,8.71875 C6.73076923,11.3938793 8.8832464,13.5625 11.5384615,13.5625 C14.1936767,13.5625 16.3461538,11.3938793 16.3461538,8.71875 L17.3076923,8.71875 C17.3076923,11.9289051 14.7247197,14.53125 11.5384615,14.53125 C8.35220337,14.53125 5.76923077,11.9289051 5.76923077,8.71875 Z" id="椭圆形-2" fill="#000000"></path>
            </g>
        </g>
    </g>
</svg>