<?xml version="1.0" encoding="UTF-8"?>
<svg width="32px" height="32px" viewBox="0 0 32 32" version="1.1" xmlns="http://www.w3.org/2000/svg" xmlns:xlink="http://www.w3.org/1999/xlink">
    <!-- Generator: Sketch 52.2 (67145) - http://www.bohemiancoding.com/sketch -->
    <title>money_filled</title>
    <desc>Created with Sketch.</desc>
    <g id="等级中心" stroke="none" stroke-width="1" fill="none" fill-rule="evenodd">
        <g id="切图" transform="translate(-196.000000, -716.000000)">
            <g id="打赏-填充" transform="translate(196.000000, 716.000000)">
                <path d="M2,6.31428571 L2,12.5142857 C5.16034294,14.2857143 8.68975471,15.1714286 12.5882353,15.1714286 C16.4867159,15.1714286 20.0161276,14.2857143 23.1764706,12.5142857 L23.1764706,6.31428571 C20.2352941,8.08571429 16.7058824,8.97142857 12.5882353,8.97142857 C8.47058824,8.97142857 4.94117647,8.08571429 2,6.31428571 Z" id="路径" fill="#EAC788"></path>
                <path d="M16.92169,15.6925866 C15.0260769,17.2978175 13.7515659,19.618763 13.51168,22.240325 C13.206201,22.2515369 12.8983861,22.2571429 12.5882353,22.2571429 C8.68975471,22.2571429 5.16034294,21.3714286 2,19.6 L2,13.4 C4.94117647,15.1714286 8.47058824,16.0571429 12.5882353,16.0571429 C14.1134252,16.0571429 15.5579101,15.9356241 16.92169,15.6925866 Z" id="路径-copy-6" fill="#EAC788"></path>
                <path d="M13.4705978,23.1290161 C13.4705914,23.133629 13.4705882,23.1382427 13.4705882,23.1428571 C13.4705882,25.4157845 14.2459587,27.5069244 15.5456716,29.1642927 C14.5846615,29.2833357 13.5988494,29.3428571 12.5882353,29.3428571 C8.68975471,29.3428571 5.16034294,28.4571429 2,26.6857143 L2,20.4857143 C4.94117647,22.2571429 8.47058824,23.1428571 12.5882353,23.1428571 C12.8854203,23.1428571 13.1795411,23.1382434 13.4705978,23.1290161 Z" id="路径-copy-5" fill="#EAC788"></path>
                <ellipse id="椭圆形-copy-7" fill="#EAC788" cx="23.1764706" cy="23.1428571" rx="8.82352941" ry="8.85714286"></ellipse>
                <polyline id="路径-12" stroke="#000000" stroke-width="0.87496704" stroke-linecap="round" stroke-linejoin="round" points="18.7647059 23.1428571 22.2941176 26.6857143 28.4705882 19.6"></polyline>
                <ellipse id="椭圆形" fill="#EAC788" cx="12.5882353" cy="4.54285714" rx="10.5882353" ry="3.54285714"></ellipse>
            </g>
        </g>
    </g>
</svg>