<?xml version="1.0" encoding="UTF-8"?>
<svg width="32px" height="32px" viewBox="0 0 32 32" version="1.1" xmlns="http://www.w3.org/2000/svg" xmlns:xlink="http://www.w3.org/1999/xlink">
    <!-- Generator: Sketch 52.2 (67145) - http://www.bohemiancoding.com/sketch -->
    <title>money</title>
    <desc>Created with Sketch.</desc>
    <g id="等级中心" stroke="none" stroke-width="1" fill="none" fill-rule="evenodd">
        <g id="切图" transform="translate(-157.000000, -717.000000)">
            <g id="打赏收入" transform="translate(157.000000, 717.000000)">
                <path d="M2,5.31428571 L2,11.5142857 C5.16034294,13.2857143 8.68975471,14.1714286 12.5882353,14.1714286 C16.4867159,14.1714286 20.0161276,13.2857143 23.1764706,11.5142857 L23.1764706,5.31428571 C20.2352941,7.08571429 16.7058824,7.97142857 12.5882353,7.97142857 C8.47058824,7.97142857 4.94117647,7.08571429 2,5.31428571 Z" id="路径" fill="#D8D8D8"></path>
                <path d="M16.92169,14.6925866 C15.0260769,16.2978175 13.7515659,18.618763 13.51168,21.240325 C13.206201,21.2515369 12.8983861,21.2571429 12.5882353,21.2571429 C8.68975471,21.2571429 5.16034294,20.3714286 2,18.6 L2,12.4 C4.94117647,14.1714286 8.47058824,15.0571429 12.5882353,15.0571429 C14.1134252,15.0571429 15.5579101,14.9356241 16.92169,14.6925866 Z" id="路径-copy-6" fill="#D8D8D8"></path>
                <path d="M13.4705978,22.1290161 C13.4705914,22.133629 13.4705882,22.1382427 13.4705882,22.1428571 C13.4705882,24.4157845 14.2459587,26.5069244 15.5456716,28.1642927 C14.5846615,28.2833357 13.5988494,28.3428571 12.5882353,28.3428571 C8.68975471,28.3428571 5.16034294,27.4571429 2,25.6857143 L2,19.4857143 C4.94117647,21.2571429 8.47058824,22.1428571 12.5882353,22.1428571 C12.8854203,22.1428571 13.1795411,22.1382434 13.4705978,22.1290161 Z" id="路径-copy-5" fill="#D8D8D8"></path>
                <ellipse id="椭圆形-copy-7" fill="#D8D8D8" cx="23.1764706" cy="22.1428571" rx="8.82352941" ry="8.85714286"></ellipse>
                <polyline id="路径-12" stroke="#000000" stroke-width="0.87496704" stroke-linecap="round" stroke-linejoin="round" points="18.7647059 22.1428571 22.2941176 25.6857143 28.4705882 18.6"></polyline>
                <ellipse id="椭圆形" fill="#D8D8D8" cx="12.5882353" cy="3.54285714" rx="10.5882353" ry="3.54285714"></ellipse>
            </g>
        </g>
    </g>
</svg>