<?xml version="1.0" encoding="UTF-8"?>
<svg width="79px" height="78px" viewBox="0 0 79 78" version="1.1" xmlns="http://www.w3.org/2000/svg" xmlns:xlink="http://www.w3.org/1999/xlink">
    <!-- Generator: Sketch 52.2 (67145) - http://www.bohemiancoding.com/sketch -->
    <title>n1</title>
    <desc>Created with Sketch.</desc>
    <defs>
        <polygon id="path-1" points="0 0 0 17.7721519 19.2597468 7.89873418"></polygon>
        <linearGradient x1="7.56388395%" y1="24.7837811%" x2="93.2426032%" y2="75.3166634%" id="linearGradient-3">
            <stop stop-color="#F6D9BD" offset="0%"></stop>
            <stop stop-color="#E7B589" offset="100%"></stop>
        </linearGradient>
        <linearGradient x1="7.56388395%" y1="24.7837811%" x2="93.2426032%" y2="75.3166634%" id="linearGradient-4">
            <stop stop-color="#E9C5A3" offset="0%"></stop>
            <stop stop-color="#CF925F" offset="100%"></stop>
        </linearGradient>
        <filter x="-3.2%" y="-9.2%" width="106.4%" height="118.3%" filterUnits="objectBoundingBox" id="filter-5">
            <feGaussianBlur stdDeviation="1.97468354" in="SourceGraphic"></feGaussianBlur>
        </filter>
        <linearGradient x1="32.6806092%" y1="0%" x2="68.8265594%" y2="100%" id="linearGradient-6">
            <stop stop-color="#FFFFFF" stop-opacity="0.577077672" offset="0%"></stop>
            <stop stop-color="#FFFFFF" stop-opacity="0.668506567" offset="100%"></stop>
        </linearGradient>
    </defs>
    <g id="等级中心" stroke="none" stroke-width="1" fill="none" fill-rule="evenodd">
        <g id="切图" transform="translate(-37.000000, -59.000000)">
            <g id="分组" transform="translate(48.150380, 116.265823)">
                <g id="分组-2" transform="translate(0.000000, 0.987342)">
                    <mask id="mask-2" fill="white">
                        <use xlink:href="#path-1"></use>
                    </mask>
                    <use id="Mask" fill="#47423F" xlink:href="#path-1"></use>
                    <polygon id="路径-14-copy-2" fill="#FFFFFF" opacity="0.200000003" mask="url(#mask-2)" points="7.0956962 0 7.0956962 17.7721519 26.355443 7.89873418"></polygon>
                </g>
                <polygon id="Mask" fill="#595048" transform="translate(44.094684, 10.860759) scale(-1, 1) translate(-44.094684, -10.860759) " points="34.4648101 1.97468354 34.4648101 19.7468354 53.724557 9.87341772"></polygon>
                <polygon id="路径-14-copy-3" fill="#FFFFFF" opacity="0.100000001" points="45.6151899 1.97468354 45.6151899 15.7974684 53.724557 20.7341772 54.7382278 0"></polygon>
            </g>
            <path d="M75.9805783,59.5443139 L106.925822,76.9465006 C107.547712,77.2962227 107.932586,77.954215 107.932586,78.6676937 L107.932586,113.382939 C107.932586,114.096418 107.547712,114.75441 106.925822,115.104132 L75.9805783,132.506319 C75.3795563,132.844306 74.6457601,132.844306 74.0447381,132.506319 L43.099494,115.104132 C42.4776046,114.75441 42.0927305,114.096418 42.0927305,113.382939 L42.0927305,78.6676937 C42.0927305,77.954215 42.4776046,77.2962227 43.099494,76.9465006 L74.0447381,59.5443139 C74.6457601,59.2063267 75.3795563,59.2063267 75.9805783,59.5443139 Z" id="多边形-copy-2" fill="url(#linearGradient-3)"></path>
            <path d="M76.9484984,67.0000202 L98.8961411,79.3423683 C100.13992,80.0418125 100.909668,81.3577971 100.909668,82.7847546 L100.909668,107.291195 C100.909668,108.718152 100.13992,110.034137 98.8961411,110.733581 L76.9484984,123.075929 C75.7464544,123.751904 74.278862,123.751904 73.076818,123.075929 L51.1291753,110.733581 C49.8853966,110.034137 49.1156484,108.718152 49.1156484,107.291195 L49.1156484,82.7847546 C49.1156484,81.3577971 49.8853966,80.0418125 51.1291753,79.3423683 L73.076818,67.0000202 C74.278862,66.3240457 75.7464544,66.3240457 76.9484984,67.0000202 Z" id="Mask" fill-opacity="0.68" fill="url(#linearGradient-4)" filter="url(#filter-5)"></path>
            <path d="M76.9484984,67.987362 L98.8961411,80.3297101 C100.13992,81.0291543 100.909668,82.3451389 100.909668,83.7720964 L100.909668,108.278537 C100.909668,109.705494 100.13992,111.021479 98.8961411,111.720923 L76.9484984,124.063271 C75.7464544,124.739245 74.278862,124.739245 73.076818,124.063271 L51.1291753,111.720923 C49.8853966,111.021479 49.1156484,109.705494 49.1156484,108.278537 L49.1156484,83.7720964 C49.1156484,82.3451389 49.8853966,81.0291543 51.1291753,80.3297101 L73.076818,67.987362 C74.278862,67.3113875 75.7464544,67.3113875 76.9484984,67.987362 Z" id="Mask-Copy" fill="url(#linearGradient-4)"></path>
            <polygon id="路径-13" fill="#FFFFFF" opacity="0.100000001" points="42.0683544 77.7594937 75.5194937 93.556962 107.956962 76.7721519 74.5058228 59"></polygon>
            <polygon id="路径-13-copy" fill="url(#linearGradient-6)" opacity="0.100000001" points="49.1640506 80.721519 75.5194937 93.556962 86.6698734 87.6329114 58.2870886 75.7848101"></polygon>
            <polygon id="路径-13-copy-2" fill="#735C4A" style="mix-blend-mode: multiply;" opacity="0.100000001" transform="translate(73.998987, 115.341462) scale(1, -1) translate(-73.998987, -115.341462) " points="47.1367089 113.429759 74.5058228 133.050633 100.861266 111.455075 74.5058228 97.6322905"></polygon>
            <g id="分组-6" transform="translate(63.355443, 83.683544)" fill="#6F5F49">
                <path d="M0.494671392,23.6962025 L0.494671392,0.497620253 L3.77288304,0.497620253 L8.92435848,14.4754177 L8.99126076,14.4754177 L8.99126076,0.497620253 L12.403277,0.497620253 L12.403277,23.6962025 L9.19196759,23.6962025 L3.97358987,9.75098734 L3.90668759,9.75098734 L3.90668759,23.6962025 L0.494671392,23.6962025 Z M19.0600537,23.6962025 L19.0600537,4.01650633 L15.6480375,6.46017722 L15.6480375,2.94129114 L19.0600537,0.497620253 L22.4720699,0.497620253 L22.4720699,23.6962025 L19.0600537,23.6962025 Z" id="N1"></path>
            </g>
        </g>
    </g>
</svg>