<?xml version="1.0" encoding="UTF-8"?>
<svg width="79px" height="78px" viewBox="0 0 79 78" version="1.1" xmlns="http://www.w3.org/2000/svg" xmlns:xlink="http://www.w3.org/1999/xlink">
    <!-- Generator: Sketch 52.2 (67145) - http://www.bohemiancoding.com/sketch -->
    <title>n10</title>
    <desc>Created with Sketch.</desc>
    <defs>
        <polygon id="path-1" points="0 0 0 18 19.2597468 8"></polygon>
        <linearGradient x1="7.56388395%" y1="24.7837811%" x2="93.2426032%" y2="75.3166634%" id="linearGradient-3">
            <stop stop-color="#F6D9BD" offset="0%"></stop>
            <stop stop-color="#E7B589" offset="100%"></stop>
        </linearGradient>
        <linearGradient x1="7.56388395%" y1="24.7837811%" x2="93.2426032%" y2="75.3166634%" id="linearGradient-4">
            <stop stop-color="#E9C5A3" offset="0%"></stop>
            <stop stop-color="#CF925F" offset="100%"></stop>
        </linearGradient>
        <filter x="-3.2%" y="-9.0%" width="106.4%" height="118.1%" filterUnits="objectBoundingBox" id="filter-5">
            <feGaussianBlur stdDeviation="1.97435897" in="SourceGraphic"></feGaussianBlur>
        </filter>
        <linearGradient x1="32.6806092%" y1="0%" x2="68.8265594%" y2="100%" id="linearGradient-6">
            <stop stop-color="#FFFFFF" stop-opacity="0.577077672" offset="0%"></stop>
            <stop stop-color="#FFFFFF" stop-opacity="0.668506567" offset="100%"></stop>
        </linearGradient>
    </defs>
    <g id="等级中心" stroke="none" stroke-width="1" fill="none" fill-rule="evenodd">
        <g id="切图" transform="translate(-524.000000, -172.000000)">
            <g id="分组" transform="translate(534.136709, 229.000000)">
                <g id="分组-2" transform="translate(0.000000, 1.000000)">
                    <mask id="mask-2" fill="white">
                        <use xlink:href="#path-1"></use>
                    </mask>
                    <use id="Mask" fill="#47423F" xlink:href="#path-1"></use>
                    <polygon id="路径-14-copy-2" fill="#FFFFFF" opacity="0.200000003" mask="url(#mask-2)" points="7.0956962 0 7.0956962 18 26.355443 8"></polygon>
                </g>
                <polygon id="Mask" fill="#595048" transform="translate(44.094684, 11.000000) scale(-1, 1) translate(-44.094684, -11.000000) " points="34.4648101 2 34.4648101 20 53.724557 10"></polygon>
                <polygon id="路径-14-copy-3" fill="#FFFFFF" opacity="0.100000001" points="45.6151899 2 45.6151899 16 53.724557 21 54.7382278 0"></polygon>
            </g>
            <path d="M562.989802,172.556546 L593.935371,190.182022 C594.551888,190.533168 594.932586,191.188117 594.932586,191.897622 L594.932586,227.102378 C594.932586,227.811883 594.551888,228.466832 593.935371,228.817978 L562.989802,246.443454 C562.384054,246.788466 561.641262,246.788466 561.035515,246.443454 L530.089946,228.817978 C529.473428,228.466832 529.092731,227.811883 529.092731,227.102378 L529.092731,191.897622 C529.092731,191.188117 529.473428,190.533168 530.089946,190.182022 L561.035515,172.556546 C561.641262,172.211534 562.384054,172.211534 562.989802,172.556546 Z" id="多边形-copy-2" fill="url(#linearGradient-3)"></path>
            <path d="M563.966946,180.113091 L585.915238,192.614045 C587.148273,193.316337 587.909668,194.626234 587.909668,196.045245 L587.909668,220.954755 C587.909668,222.373766 587.148273,223.683663 585.915238,224.385955 L563.966946,236.886909 C562.755451,237.576932 561.269866,237.576932 560.058371,236.886909 L538.110079,224.385955 C536.877044,223.683663 536.115648,222.373766 536.115648,220.954755 L536.115648,196.045245 C536.115648,194.626234 536.877044,193.316337 538.110079,192.614045 L560.058371,180.113091 C561.269866,179.423068 562.755451,179.423068 563.966946,180.113091 Z" id="Mask" fill-opacity="0.68" fill="url(#linearGradient-4)" filter="url(#filter-5)"></path>
            <path d="M563.966946,181.113091 L585.915238,193.614045 C587.148273,194.316337 587.909668,195.626234 587.909668,197.045245 L587.909668,221.954755 C587.909668,223.373766 587.148273,224.683663 585.915238,225.385955 L563.966946,237.886909 C562.755451,238.576932 561.269866,238.576932 560.058371,237.886909 L538.110079,225.385955 C536.877044,224.683663 536.115648,223.373766 536.115648,221.954755 L536.115648,197.045245 C536.115648,195.626234 536.877044,194.316337 538.110079,193.614045 L560.058371,181.113091 C561.269866,180.423068 562.755451,180.423068 563.966946,181.113091 Z" id="Mask-Copy" fill="url(#linearGradient-4)"></path>
            <polygon id="路径-13" fill="#FFFFFF" opacity="0.100000001" points="529.068354 191 562.519494 207 594.956962 190 561.505823 172"></polygon>
            <polygon id="路径-13-copy" fill="url(#linearGradient-6)" opacity="0.100000001" points="536.164051 194 562.519494 207 573.669873 201 545.287089 189"></polygon>
            <polygon id="路径-13-copy-2" fill="#735C4A" style="mix-blend-mode: multiply;" opacity="0.100000001" transform="translate(560.998987, 229.063788) scale(1, -1) translate(-560.998987, -229.063788) " points="534.136709 227.127576 561.505823 247 587.861266 225.127576 561.505823 211.127576"></polygon>
            <g id="分组-6" transform="translate(542.246076, 198.000000)" fill="#6F5F49">
                <path d="M2.38212658,23 L2.38212658,-0.496 L5.66033823,-0.496 L10.8118137,13.661 L10.8787159,13.661 L10.8787159,-0.496 L14.2907322,-0.496 L14.2907322,23 L11.0794228,23 L5.86104506,8.876 L5.79414278,8.876 L5.79414278,23 L2.38212658,23 Z M20.9475089,23 L20.9475089,3.068 L17.5354927,5.543 L17.5354927,1.979 L20.9475089,-0.496 L24.3595251,-0.496 L24.3595251,23 L20.9475089,23 Z M29.3437448,4.355 C29.3437448,3.56299604 29.4831232,2.85900308 29.7618841,2.243 C30.0406449,1.62699692 30.4141789,1.0990022 30.8824972,0.659 C31.3508155,0.2189978 31.8916035,-0.116498845 32.5048775,-0.3475 C33.1181514,-0.578501155 33.7592918,-0.694 34.428318,-0.694 C35.0973441,-0.694 35.7384845,-0.578501155 36.3517585,-0.3475 C36.9650324,-0.116498845 37.5058204,0.2189978 37.9741387,0.659 C38.442457,1.0990022 38.815991,1.62699692 39.0947519,2.243 C39.3735128,2.85900308 39.5128911,3.56299604 39.5128911,4.355 L39.5128911,18.149 C39.5128911,18.941004 39.3735128,19.6449969 39.0947519,20.261 C38.815991,20.8770031 38.442457,21.4049978 37.9741387,21.845 C37.5058204,22.2850022 36.9650324,22.6204988 36.3517585,22.8515 C35.7384845,23.0825012 35.0973441,23.198 34.428318,23.198 C33.7592918,23.198 33.1181514,23.0825012 32.5048775,22.8515 C31.8916035,22.6204988 31.3508155,22.2850022 30.8824972,21.845 C30.4141789,21.4049978 30.0406449,20.8770031 29.7618841,20.261 C29.4831232,19.6449969 29.3437448,18.941004 29.3437448,18.149 L29.3437448,4.355 Z M32.755761,18.149 C32.755761,18.6330024 32.9118648,19.0344984 33.224077,19.3535 C33.5362892,19.6725016 33.9376988,19.832 34.428318,19.832 C34.9189371,19.832 35.3203468,19.6725016 35.632559,19.3535 C35.9447712,19.0344984 36.1008749,18.6330024 36.1008749,18.149 L36.1008749,4.355 C36.1008749,3.87099758 35.9447712,3.46950159 35.632559,3.1505 C35.3203468,2.8314984 34.9189371,2.672 34.428318,2.672 C33.9376988,2.672 33.5362892,2.8314984 33.224077,3.1505 C32.9118648,3.46950159 32.755761,3.87099758 32.755761,4.355 L32.755761,18.149 Z" id="N10"></path>
            </g>
        </g>
    </g>
</svg>