<?xml version="1.0" encoding="UTF-8"?>
<svg width="79px" height="78px" viewBox="0 0 79 78" version="1.1" xmlns="http://www.w3.org/2000/svg" xmlns:xlink="http://www.w3.org/1999/xlink">
    <!-- Generator: Sketch 52.2 (67145) - http://www.bohemiancoding.com/sketch -->
    <title>n11</title>
    <desc>Created with Sketch.</desc>
    <defs>
        <polygon id="path-1" points="0 0 0 18 19.2597468 8"></polygon>
        <linearGradient x1="7.56388395%" y1="24.7837811%" x2="93.2426032%" y2="75.3166634%" id="linearGradient-3">
            <stop stop-color="#F6D9BD" offset="0%"></stop>
            <stop stop-color="#E7B589" offset="100%"></stop>
        </linearGradient>
        <linearGradient x1="7.56388395%" y1="24.7837811%" x2="93.2426032%" y2="75.3166634%" id="linearGradient-4">
            <stop stop-color="#E9C5A3" offset="0%"></stop>
            <stop stop-color="#CF925F" offset="100%"></stop>
        </linearGradient>
        <filter x="-3.3%" y="-9.1%" width="106.6%" height="118.2%" filterUnits="objectBoundingBox" id="filter-5">
            <feGaussianBlur stdDeviation="1.98939929" in="SourceGraphic"></feGaussianBlur>
        </filter>
        <linearGradient x1="32.6806092%" y1="0%" x2="68.8265594%" y2="100%" id="linearGradient-6">
            <stop stop-color="#FFFFFF" stop-opacity="0.577077672" offset="0%"></stop>
            <stop stop-color="#FFFFFF" stop-opacity="0.668506567" offset="100%"></stop>
        </linearGradient>
    </defs>
    <g id="等级中心" stroke="none" stroke-width="1" fill="none" fill-rule="evenodd">
        <g id="切图" transform="translate(-38.000000, -271.000000)">
            <g id="分组" transform="translate(50.164051, 328.000000)">
                <g id="分组-2" transform="translate(0.000000, 1.000000)">
                    <mask id="mask-2" fill="white">
                        <use xlink:href="#path-1"></use>
                    </mask>
                    <use id="Mask" fill="#47423F" xlink:href="#path-1"></use>
                    <polygon id="路径-14-copy-2" fill="#FFFFFF" opacity="0.200000003" mask="url(#mask-2)" points="7.0956962 0 7.0956962 18 26.355443 8"></polygon>
                </g>
                <polygon id="Mask" fill="#595048" transform="translate(44.094684, 11.000000) scale(-1, 1) translate(-44.094684, -11.000000) " points="34.4648101 2 34.4648101 20 53.724557 10"></polygon>
                <polygon id="路径-14-copy-3" fill="#FFFFFF" opacity="0.100000001" points="45.6151899 2 45.6151899 16 53.724557 21 54.7382278 0"></polygon>
            </g>
            <path d="M76.9972457,271.560785 L107.927774,289.177696 C108.548988,289.531517 108.932586,290.191455 108.932586,290.906365 L108.932586,326.093635 C108.932586,326.808545 108.548988,327.468483 107.927774,327.822304 L76.9972457,345.439215 C76.3868836,345.786855 75.6384329,345.786855 75.0280708,345.439215 L44.0975424,327.822304 C43.4763282,327.468483 43.0927305,326.808545 43.0927305,326.093635 L43.0927305,290.906365 C43.0927305,290.191455 43.4763282,289.531517 44.0975424,289.177696 L75.0280708,271.560785 C75.6384329,271.213145 76.3868836,271.213145 76.9972457,271.560785 Z" id="多边形-copy-2" fill="url(#linearGradient-3)"></path>
            <path d="M77.9818331,279.121571 L99.9000443,291.605391 C101.142473,292.313033 101.909668,293.632909 101.909668,295.062729 L101.909668,319.937271 C101.909668,321.367091 101.142473,322.686967 99.9000443,323.394609 L77.9818331,335.878429 C76.761109,336.57371 75.2642075,336.57371 74.0434834,335.878429 L52.1252722,323.394609 C50.8828437,322.686967 50.1156484,321.367091 50.1156484,319.937271 L50.1156484,295.062729 C50.1156484,293.632909 50.8828437,292.313033 52.1252722,291.605391 L74.0434834,279.121571 C75.2642075,278.42629 76.761109,278.42629 77.9818331,279.121571 Z" id="Mask" fill-opacity="0.68" fill="url(#linearGradient-4)" filter="url(#filter-5)"></path>
            <path d="M77.9818331,280.121571 L99.9000443,292.605391 C101.142473,293.313033 101.909668,294.632909 101.909668,296.062729 L101.909668,320.937271 C101.909668,322.367091 101.142473,323.686967 99.9000443,324.394609 L77.9818331,336.878429 C76.761109,337.57371 75.2642075,337.57371 74.0434834,336.878429 L52.1252722,324.394609 C50.8828437,323.686967 50.1156484,322.367091 50.1156484,320.937271 L50.1156484,296.062729 C50.1156484,294.632909 50.8828437,293.313033 52.1252722,292.605391 L74.0434834,280.121571 C75.2642075,279.42629 76.761109,279.42629 77.9818331,280.121571 Z" id="Mask-Copy" fill="url(#linearGradient-4)"></path>
            <polygon id="路径-13" fill="#FFFFFF" opacity="0.100000001" points="43.0683544 290 76.5194937 306 108.956962 289 75.5058228 271"></polygon>
            <polygon id="路径-13-copy" fill="url(#linearGradient-6)" opacity="0.100000001" points="50.1640506 293 76.5194937 306 87.6698734 300 59.2870886 288"></polygon>
            <polygon id="路径-13-copy-2" fill="#735C4A" style="mix-blend-mode: multiply;" opacity="0.100000001" transform="translate(74.998987, 328.063788) scale(1, -1) translate(-74.998987, -328.063788) " points="48.1367089 326.127576 75.5058228 346 101.861266 324.127576 75.5058228 310.127576"></polygon>
            <g id="分组-6" transform="translate(56.246076, 297.000000)" fill="#6F5F49">
                <path d="M2.38212658,23 L2.38212658,-0.496 L5.66033823,-0.496 L10.8118137,13.661 L10.8787159,13.661 L10.8787159,-0.496 L14.2907322,-0.496 L14.2907322,23 L11.0794228,23 L5.86104506,8.876 L5.79414278,8.876 L5.79414278,23 L2.38212658,23 Z M20.9475089,23 L20.9475089,3.068 L17.5354927,5.543 L17.5354927,1.979 L20.9475089,-0.496 L24.3595251,-0.496 L24.3595251,23 L20.9475089,23 Z M33.3913327,23 L33.3913327,3.068 L29.9793165,5.543 L29.9793165,1.979 L33.3913327,-0.496 L36.8033489,-0.496 L36.8033489,23 L33.3913327,23 Z" id="N11"></path>
            </g>
        </g>
    </g>
</svg>