<?xml version="1.0" encoding="UTF-8"?>
<svg width="79px" height="78px" viewBox="0 0 79 78" version="1.1" xmlns="http://www.w3.org/2000/svg" xmlns:xlink="http://www.w3.org/1999/xlink">
    <!-- Generator: Sketch 52.2 (67145) - http://www.bohemiancoding.com/sketch -->
    <title>n12</title>
    <desc>Created with Sketch.</desc>
    <defs>
        <polygon id="path-1" points="0 0 0 18 19.5066667 8"></polygon>
        <linearGradient x1="7.56388395%" y1="24.7837811%" x2="93.2426032%" y2="75.3166634%" id="linearGradient-3">
            <stop stop-color="#F6D9BD" offset="0%"></stop>
            <stop stop-color="#E7B589" offset="100%"></stop>
        </linearGradient>
        <linearGradient x1="7.56388395%" y1="24.7837811%" x2="93.2426032%" y2="75.3166634%" id="linearGradient-4">
            <stop stop-color="#E9C5A3" offset="0%"></stop>
            <stop stop-color="#CF925F" offset="100%"></stop>
        </linearGradient>
        <filter x="-3.2%" y="-9.1%" width="106.3%" height="118.2%" filterUnits="objectBoundingBox" id="filter-5">
            <feGaussianBlur stdDeviation="1.98939929" in="SourceGraphic"></feGaussianBlur>
        </filter>
        <linearGradient x1="32.6806092%" y1="0%" x2="68.8265594%" y2="100%" id="linearGradient-6">
            <stop stop-color="#FFFFFF" stop-opacity="0.577077672" offset="0%"></stop>
            <stop stop-color="#FFFFFF" stop-opacity="0.668506567" offset="100%"></stop>
        </linearGradient>
    </defs>
    <g id="等级中心" stroke="none" stroke-width="1" fill="none" fill-rule="evenodd">
        <g id="切图" transform="translate(-159.000000, -271.000000)">
            <g id="分组" transform="translate(170.293333, 328.000000)">
                <g id="分组-2" transform="translate(0.000000, 1.000000)">
                    <mask id="mask-2" fill="white">
                        <use xlink:href="#path-1"></use>
                    </mask>
                    <use id="Mask" fill="#47423F" xlink:href="#path-1"></use>
                    <polygon id="路径-14-copy-2" fill="#FFFFFF" opacity="0.200000003" mask="url(#mask-2)" points="7.18666667 0 7.18666667 18 26.6933333 8"></polygon>
                </g>
                <polygon id="Mask" fill="#595048" transform="translate(44.660000, 11.000000) scale(-1, 1) translate(-44.660000, -11.000000) " points="34.9066667 2 34.9066667 20 54.4133333 10"></polygon>
                <polygon id="路径-14-copy-3" fill="#FFFFFF" opacity="0.100000001" points="46.2 2 46.2 16 54.4133333 21 55.44 0"></polygon>
            </g>
            <path d="M198.475133,271.54837 L229.827712,289.179623 C230.454236,289.531952 230.841978,290.194847 230.841978,290.913643 L230.841978,326.086357 C230.841978,326.805153 230.454236,327.468048 229.827712,327.820377 L198.475133,345.45163 C197.869632,345.792136 197.130368,345.792136 196.524867,345.45163 L165.172288,327.820377 C164.545764,327.468048 164.158022,326.805153 164.158022,326.086357 L164.158022,290.913643 C164.158022,290.194847 164.545764,289.531952 165.172288,289.179623 L196.524867,271.54837 C197.130368,271.207864 197.869632,271.207864 198.475133,271.54837 Z" id="多边形-copy-2" fill="url(#linearGradient-3)"></path>
            <path d="M199.450266,279.09674 L221.700491,291.609247 C222.953538,292.313903 223.729023,293.639695 223.729023,295.077286 L223.729023,319.922714 C223.729023,321.360305 222.953538,322.686097 221.700491,323.390753 L199.450266,335.90326 C198.239265,336.584271 196.760735,336.584271 195.549734,335.90326 L173.299509,323.390753 C172.046462,322.686097 171.270977,321.360305 171.270977,319.922714 L171.270977,295.077286 C171.270977,293.639695 172.046462,292.313903 173.299509,291.609247 L195.549734,279.09674 C196.760735,278.415729 198.239265,278.415729 199.450266,279.09674 Z" id="Mask" fill-opacity="0.68" fill="url(#linearGradient-4)" filter="url(#filter-5)"></path>
            <path d="M199.450266,280.09674 L221.700491,292.609247 C222.953538,293.313903 223.729023,294.639695 223.729023,296.077286 L223.729023,320.922714 C223.729023,322.360305 222.953538,323.686097 221.700491,324.390753 L199.450266,336.90326 C198.239265,337.584271 196.760735,337.584271 195.549734,336.90326 L173.299509,324.390753 C172.046462,323.686097 171.270977,322.360305 171.270977,320.922714 L171.270977,296.077286 C171.270977,294.639695 172.046462,293.313903 173.299509,292.609247 L195.549734,280.09674 C196.760735,279.415729 198.239265,279.415729 199.450266,280.09674 Z" id="Mask-Copy" fill="url(#linearGradient-4)"></path>
            <polygon id="路径-13" fill="#FFFFFF" opacity="0.100000001" points="164.133333 290 198.013333 306 230.866667 289 196.986667 271"></polygon>
            <polygon id="路径-13-copy" fill="url(#linearGradient-6)" opacity="0.100000001" points="171.32 293 198.013333 306 209.306667 300 180.56 288"></polygon>
            <polygon id="路径-13-copy-2" fill="#735C4A" style="mix-blend-mode: multiply;" opacity="0.100000001" transform="translate(196.473333, 328.063788) scale(1, -1) translate(-196.473333, -328.063788) " points="169.266667 326.127576 196.986667 346 223.68 324.127576 196.986667 310.127576"></polygon>
            <g id="分组-6" transform="translate(177.480000, 297.000000)" fill="#6F5F49">
                <path d="M2.41266667,23 L2.41266667,-0.496 L5.73290667,-0.496 L10.9504267,13.661 L11.0181867,13.661 L11.0181867,-0.496 L14.4739467,-0.496 L14.4739467,23 L11.2214667,23 L5.93618667,8.876 L5.86842667,8.876 L5.86842667,23 L2.41266667,23 Z M21.2160667,23 L21.2160667,3.068 L17.7603067,5.543 L17.7603067,1.979 L21.2160667,-0.496 L24.6718267,-0.496 L24.6718267,23 L21.2160667,23 Z M29.7199467,23 L29.7199467,19.832 L35.9538667,8.381 C36.2700816,7.80899714 36.4507731,7.30850215 36.4959467,6.8795 C36.5411202,6.45049786 36.5637067,5.91700319 36.5637067,5.279 C36.5637067,4.99299857 36.5580601,4.69050159 36.5467667,4.3715 C36.5354733,4.05249841 36.4733606,3.77200121 36.3604267,3.53 C36.2474928,3.28799879 36.0780945,3.08450082 35.8522267,2.9195 C35.6263589,2.75449917 35.2988555,2.672 34.8697067,2.672 C34.3502107,2.672 33.9380082,2.81499857 33.6330867,3.101 C33.3281651,3.38700143 33.1757067,3.80499725 33.1757067,4.355 L33.1757067,6.269 L29.7199467,6.269 L29.7199467,4.421 C29.7199467,3.71699648 29.8554653,3.05700308 30.1265067,2.441 C30.397548,1.82499692 30.7702243,1.28600231 31.2445467,0.824 C31.6962823,0.36199769 32.2383568,-0.006498625 32.8707867,-0.2815 C33.5032165,-0.556501375 34.1808097,-0.694 34.9035867,-0.694 C35.8070579,-0.694 36.5806434,-0.534501595 37.2243667,-0.2155 C37.8680899,0.103501595 38.4045179,0.53799725 38.8336667,1.088 C39.2402287,1.63800275 39.539499,2.26499648 39.7314867,2.969 C39.9234743,3.67300352 40.0194667,4.42099604 40.0194667,5.213 C40.0194667,5.78500286 40.0081734,6.26349807 39.9855867,6.6485 C39.9629999,7.03350192 39.917827,7.40199824 39.8500667,7.754 C39.7823063,8.10600176 39.6693741,8.45799824 39.5112667,8.81 C39.3531592,9.16200176 39.138588,9.59099747 38.8675467,10.097 L33.7855467,19.634 L40.0194667,19.634 L40.0194667,23 L29.7199467,23 Z" id="N12"></path>
            </g>
        </g>
    </g>
</svg>