<?xml version="1.0" encoding="UTF-8"?>
<svg width="79px" height="78px" viewBox="0 0 79 78" version="1.1" xmlns="http://www.w3.org/2000/svg" xmlns:xlink="http://www.w3.org/1999/xlink">
    <!-- Generator: Sketch 52.2 (67145) - http://www.bohemiancoding.com/sketch -->
    <title>n13</title>
    <desc>Created with Sketch.</desc>
    <defs>
        <polygon id="path-1" points="0 0 0 18 19.2597468 8"></polygon>
        <linearGradient x1="7.56388395%" y1="24.7837811%" x2="93.2426032%" y2="75.3166634%" id="linearGradient-3">
            <stop stop-color="#F6D9BD" offset="0%"></stop>
            <stop stop-color="#E7B589" offset="100%"></stop>
        </linearGradient>
        <linearGradient x1="7.56388395%" y1="24.7837811%" x2="93.2426032%" y2="75.3166634%" id="linearGradient-4">
            <stop stop-color="#E9C5A3" offset="0%"></stop>
            <stop stop-color="#CF925F" offset="100%"></stop>
        </linearGradient>
        <filter x="-3.3%" y="-9.1%" width="106.6%" height="118.2%" filterUnits="objectBoundingBox" id="filter-5">
            <feGaussianBlur stdDeviation="1.98939929" in="SourceGraphic"></feGaussianBlur>
        </filter>
        <linearGradient x1="32.6806092%" y1="0%" x2="68.8265594%" y2="100%" id="linearGradient-6">
            <stop stop-color="#FFFFFF" stop-opacity="0.577077672" offset="0%"></stop>
            <stop stop-color="#FFFFFF" stop-opacity="0.668506567" offset="100%"></stop>
        </linearGradient>
    </defs>
    <g id="等级中心" stroke="none" stroke-width="1" fill="none" fill-rule="evenodd">
        <g id="切图" transform="translate(-287.000000, -276.000000)">
            <g id="分组" transform="translate(298.150380, 333.000000)">
                <g id="分组-2" transform="translate(0.000000, 1.000000)">
                    <mask id="mask-2" fill="white">
                        <use xlink:href="#path-1"></use>
                    </mask>
                    <use id="Mask" fill="#47423F" xlink:href="#path-1"></use>
                    <polygon id="路径-14-copy-2" fill="#FFFFFF" opacity="0.200000003" mask="url(#mask-2)" points="7.0956962 0 7.0956962 18 26.355443 8"></polygon>
                </g>
                <polygon id="Mask" fill="#595048" transform="translate(44.094684, 11.000000) scale(-1, 1) translate(-44.094684, -11.000000) " points="34.4648101 2 34.4648101 20 53.724557 10"></polygon>
                <polygon id="路径-14-copy-3" fill="#FFFFFF" opacity="0.100000001" points="45.6151899 2 45.6151899 16 53.724557 21 54.7382278 0"></polygon>
            </g>
            <path d="M325.997246,276.560785 L356.927774,294.177696 C357.548988,294.531517 357.932586,295.191455 357.932586,295.906365 L357.932586,331.093635 C357.932586,331.808545 357.548988,332.468483 356.927774,332.822304 L325.997246,350.439215 C325.386884,350.786855 324.638433,350.786855 324.028071,350.439215 L293.097542,332.822304 C292.476328,332.468483 292.092731,331.808545 292.092731,331.093635 L292.092731,295.906365 C292.092731,295.191455 292.476328,294.531517 293.097542,294.177696 L324.028071,276.560785 C324.638433,276.213145 325.386884,276.213145 325.997246,276.560785 Z" id="多边形-copy-2" fill="url(#linearGradient-3)"></path>
            <path d="M326.981833,284.121571 L348.900044,296.605391 C350.142473,297.313033 350.909668,298.632909 350.909668,300.062729 L350.909668,324.937271 C350.909668,326.367091 350.142473,327.686967 348.900044,328.394609 L326.981833,340.878429 C325.761109,341.57371 324.264207,341.57371 323.043483,340.878429 L301.125272,328.394609 C299.882844,327.686967 299.115648,326.367091 299.115648,324.937271 L299.115648,300.062729 C299.115648,298.632909 299.882844,297.313033 301.125272,296.605391 L323.043483,284.121571 C324.264207,283.42629 325.761109,283.42629 326.981833,284.121571 Z" id="Mask" fill-opacity="0.68" fill="url(#linearGradient-4)" filter="url(#filter-5)"></path>
            <path d="M326.981833,285.121571 L348.900044,297.605391 C350.142473,298.313033 350.909668,299.632909 350.909668,301.062729 L350.909668,325.937271 C350.909668,327.367091 350.142473,328.686967 348.900044,329.394609 L326.981833,341.878429 C325.761109,342.57371 324.264207,342.57371 323.043483,341.878429 L301.125272,329.394609 C299.882844,328.686967 299.115648,327.367091 299.115648,325.937271 L299.115648,301.062729 C299.115648,299.632909 299.882844,298.313033 301.125272,297.605391 L323.043483,285.121571 C324.264207,284.42629 325.761109,284.42629 326.981833,285.121571 Z" id="Mask-Copy" fill="url(#linearGradient-4)"></path>
            <polygon id="路径-13" fill="#FFFFFF" opacity="0.100000001" points="292.068354 295 325.519494 311 357.956962 294 324.505823 276"></polygon>
            <polygon id="路径-13-copy" fill="url(#linearGradient-6)" opacity="0.100000001" points="299.164051 298 325.519494 311 336.669873 305 308.287089 293"></polygon>
            <polygon id="路径-13-copy-2" fill="#735C4A" style="mix-blend-mode: multiply;" opacity="0.100000001" transform="translate(323.998987, 333.063788) scale(1, -1) translate(-323.998987, -333.063788) " points="297.136709 331.127576 324.505823 351 350.861266 329.127576 324.505823 315.127576"></polygon>
            <g id="分组-6" transform="translate(305.246076, 302.000000)" fill="#6F5F49">
                <path d="M2.38212658,23 L2.38212658,-0.496 L5.66033823,-0.496 L10.8118137,13.661 L10.8787159,13.661 L10.8787159,-0.496 L14.2907322,-0.496 L14.2907322,23 L11.0794228,23 L5.86104506,8.876 L5.79414278,8.876 L5.79414278,23 L2.38212658,23 Z M20.9475089,23 L20.9475089,3.068 L17.5354927,5.543 L17.5354927,1.979 L20.9475089,-0.496 L24.3595251,-0.496 L24.3595251,23 L20.9475089,23 Z M33.3913327,9.404 C34.4171727,9.404 35.1252148,9.28300121 35.51548,9.041 C35.9057452,8.79899879 36.1008749,8.2380044 36.1008749,7.358 L36.1008749,4.322 C36.1008749,3.83799758 35.9503463,3.44200154 35.6492846,3.134 C35.3482228,2.82599846 34.941238,2.672 34.428318,2.672 C33.8261945,2.672 33.3969091,2.85899813 33.1404491,3.233 C32.8839891,3.60700187 32.755761,3.96999824 32.755761,4.322 L32.755761,6.236 L29.3437448,6.236 L29.3437448,4.289 C29.3437448,3.60699659 29.477548,2.95800308 29.7451585,2.342 C30.0127689,1.72599692 30.3807278,1.1980022 30.8490461,0.758 C31.3173644,0.3179978 31.8637275,-0.03399868 32.4881519,-0.298 C33.1125763,-0.56200132 33.7815924,-0.694 34.4952203,-0.694 C35.4318568,-0.694 36.2068005,-0.512501815 36.8200744,-0.1495 C37.4333484,0.213501815 37.8960845,0.58199813 38.2082967,0.956 C38.4313054,1.22000132 38.6264351,1.48399868 38.7936916,1.748 C38.9609482,2.01200132 39.1003265,2.33099813 39.2118309,2.705 C39.4125387,3.43100363 39.5128911,4.50899285 39.5128911,5.939 C39.5128911,6.75300407 39.4961657,7.41299747 39.4627144,7.919 C39.4292631,8.42500253 39.3456361,8.84299835 39.2118309,9.173 C39.0557248,9.52500176 38.8382946,9.82199879 38.5595337,10.064 C38.2807728,10.3060012 37.8960885,10.5699986 37.4054694,10.856 C37.9406903,11.1860016 38.3476751,11.4939986 38.6264359,11.78 C38.9051968,12.0660014 39.1114768,12.3959981 39.245282,12.77 C39.3790873,13.166002 39.4571391,13.6334973 39.47944,14.1725 C39.5017409,14.7115027 39.5128911,15.3989958 39.5128911,16.235 C39.5128911,17.0050038 39.4961657,17.6429975 39.4627144,18.149 C39.4292631,18.6550025 39.3790869,19.0729983 39.3121843,19.403 C39.2452817,19.7550018 39.1560795,20.0519988 39.0445752,20.294 C38.9330708,20.5360012 38.7881173,20.7889987 38.6097104,21.053 C38.1859938,21.6690031 37.6452058,22.180498 36.9873301,22.5875 C36.3294544,22.994502 35.4653086,23.198 34.3948668,23.198 C33.8596459,23.198 33.2909823,23.1100009 32.6888587,22.934 C32.0867352,22.7579991 31.5403721,22.472002 31.0497529,22.076 C30.5591337,21.679998 30.152149,21.1630032 29.8287863,20.525 C29.5054237,19.8869968 29.3437448,19.1060046 29.3437448,18.182 L29.3437448,16.268 L32.755761,16.268 L32.755761,18.017 C32.755761,18.5450026 32.9062896,18.9794983 33.2073514,19.3205 C33.5084132,19.6615017 33.9153979,19.832 34.428318,19.832 C34.941238,19.832 35.3482228,19.6615017 35.6492846,19.3205 C35.9503463,18.9794983 36.1008749,18.5230029 36.1008749,17.951 L36.1008749,14.585 C36.1008749,13.6609954 35.9224706,13.0560014 35.5656567,12.77 C35.3649489,12.5939991 35.0917673,12.4840002 34.7461038,12.44 C34.4004403,12.3959998 33.9488544,12.374 33.3913327,12.374 L33.3913327,9.404 Z" id="N13"></path>
            </g>
        </g>
    </g>
</svg>