<?xml version="1.0" encoding="UTF-8"?>
<svg width="79px" height="78px" viewBox="0 0 79 78" version="1.1" xmlns="http://www.w3.org/2000/svg" xmlns:xlink="http://www.w3.org/1999/xlink">
    <!-- Generator: Sketch 52.2 (67145) - http://www.bohemiancoding.com/sketch -->
    <title>n14</title>
    <desc>Created with Sketch.</desc>
    <defs>
        <polygon id="path-1" points="0 0 0 18 19.2597468 8"></polygon>
        <linearGradient x1="7.56388395%" y1="24.7837811%" x2="93.2426032%" y2="75.3166634%" id="linearGradient-3">
            <stop stop-color="#F6D9BD" offset="0%"></stop>
            <stop stop-color="#E7B589" offset="100%"></stop>
        </linearGradient>
        <linearGradient x1="7.56388395%" y1="24.7837811%" x2="93.2426032%" y2="75.3166634%" id="linearGradient-4">
            <stop stop-color="#E9C5A3" offset="0%"></stop>
            <stop stop-color="#CF925F" offset="100%"></stop>
        </linearGradient>
        <filter x="-3.3%" y="-9.1%" width="106.6%" height="118.2%" filterUnits="objectBoundingBox" id="filter-5">
            <feGaussianBlur stdDeviation="1.98939929" in="SourceGraphic"></feGaussianBlur>
        </filter>
        <linearGradient x1="32.6806092%" y1="0%" x2="68.8265594%" y2="100%" id="linearGradient-6">
            <stop stop-color="#FFFFFF" stop-opacity="0.577077672" offset="0%"></stop>
            <stop stop-color="#FFFFFF" stop-opacity="0.668506567" offset="100%"></stop>
        </linearGradient>
    </defs>
    <g id="等级中心" stroke="none" stroke-width="1" fill="none" fill-rule="evenodd">
        <g id="切图" transform="translate(-401.000000, -276.000000)">
            <g id="分组" transform="translate(411.136709, 333.000000)">
                <g id="分组-2" transform="translate(0.000000, 1.000000)">
                    <mask id="mask-2" fill="white">
                        <use xlink:href="#path-1"></use>
                    </mask>
                    <use id="Mask" fill="#47423F" xlink:href="#path-1"></use>
                    <polygon id="路径-14-copy-2" fill="#FFFFFF" opacity="0.200000003" mask="url(#mask-2)" points="7.0956962 0 7.0956962 18 26.355443 8"></polygon>
                </g>
                <polygon id="Mask" fill="#595048" transform="translate(44.094684, 11.000000) scale(-1, 1) translate(-44.094684, -11.000000) " points="34.4648101 2 34.4648101 20 53.724557 10"></polygon>
                <polygon id="路径-14-copy-3" fill="#FFFFFF" opacity="0.100000001" points="45.6151899 2 45.6151899 16 53.724557 21 54.7382278 0"></polygon>
            </g>
            <path d="M439.997246,276.560785 L470.927774,294.177696 C471.548988,294.531517 471.932586,295.191455 471.932586,295.906365 L471.932586,331.093635 C471.932586,331.808545 471.548988,332.468483 470.927774,332.822304 L439.997246,350.439215 C439.386884,350.786855 438.638433,350.786855 438.028071,350.439215 L407.097542,332.822304 C406.476328,332.468483 406.092731,331.808545 406.092731,331.093635 L406.092731,295.906365 C406.092731,295.191455 406.476328,294.531517 407.097542,294.177696 L438.028071,276.560785 C438.638433,276.213145 439.386884,276.213145 439.997246,276.560785 Z" id="多边形-copy-2" fill="url(#linearGradient-3)"></path>
            <path d="M440.981833,284.121571 L462.900044,296.605391 C464.142473,297.313033 464.909668,298.632909 464.909668,300.062729 L464.909668,324.937271 C464.909668,326.367091 464.142473,327.686967 462.900044,328.394609 L440.981833,340.878429 C439.761109,341.57371 438.264207,341.57371 437.043483,340.878429 L415.125272,328.394609 C413.882844,327.686967 413.115648,326.367091 413.115648,324.937271 L413.115648,300.062729 C413.115648,298.632909 413.882844,297.313033 415.125272,296.605391 L437.043483,284.121571 C438.264207,283.42629 439.761109,283.42629 440.981833,284.121571 Z" id="Mask" fill-opacity="0.68" fill="url(#linearGradient-4)" filter="url(#filter-5)"></path>
            <path d="M440.981833,285.121571 L462.900044,297.605391 C464.142473,298.313033 464.909668,299.632909 464.909668,301.062729 L464.909668,325.937271 C464.909668,327.367091 464.142473,328.686967 462.900044,329.394609 L440.981833,341.878429 C439.761109,342.57371 438.264207,342.57371 437.043483,341.878429 L415.125272,329.394609 C413.882844,328.686967 413.115648,327.367091 413.115648,325.937271 L413.115648,301.062729 C413.115648,299.632909 413.882844,298.313033 415.125272,297.605391 L437.043483,285.121571 C438.264207,284.42629 439.761109,284.42629 440.981833,285.121571 Z" id="Mask-Copy" fill="url(#linearGradient-4)"></path>
            <polygon id="路径-13" fill="#FFFFFF" opacity="0.100000001" points="406.068354 295 439.519494 311 471.956962 294 438.505823 276"></polygon>
            <polygon id="路径-13-copy" fill="url(#linearGradient-6)" opacity="0.100000001" points="413.164051 298 439.519494 311 450.669873 305 422.287089 293"></polygon>
            <polygon id="路径-13-copy-2" fill="#735C4A" style="mix-blend-mode: multiply;" opacity="0.100000001" transform="translate(437.998987, 333.063788) scale(1, -1) translate(-437.998987, -333.063788) " points="411.136709 331.127576 438.505823 351 464.861266 329.127576 438.505823 315.127576"></polygon>
            <g id="分组-6" transform="translate(419.246076, 302.000000)" fill="#6F5F49">
                <path d="M2.38212658,23 L2.38212658,-0.496 L5.66033823,-0.496 L10.8118137,13.661 L10.8787159,13.661 L10.8787159,-0.496 L14.2907322,-0.496 L14.2907322,23 L11.0794228,23 L5.86104506,8.876 L5.79414278,8.876 L5.79414278,23 L2.38212658,23 Z M20.9475089,23 L20.9475089,3.068 L17.5354927,5.543 L17.5354927,1.979 L20.9475089,-0.496 L24.3595251,-0.496 L24.3595251,23 L20.9475089,23 Z M35.2980476,23 L35.2980476,19.502 L28.5074663,19.502 L28.5074663,16.334 L33.4247838,-0.496 L37.0375068,-0.496 L31.9194825,16.334 L35.2980476,16.334 L35.2980476,9.635 L38.7100638,9.635 L38.7100638,16.334 L40.3491696,16.334 L40.3491696,19.502 L38.7100638,19.502 L38.7100638,23 L35.2980476,23 Z" id="N14"></path>
            </g>
        </g>
    </g>
</svg>