<?xml version="1.0" encoding="UTF-8"?>
<svg width="79px" height="78px" viewBox="0 0 79 78" version="1.1" xmlns="http://www.w3.org/2000/svg" xmlns:xlink="http://www.w3.org/1999/xlink">
    <!-- Generator: Sketch 52.2 (67145) - http://www.bohemiancoding.com/sketch -->
    <title>n15</title>
    <desc>Created with Sketch.</desc>
    <defs>
        <polygon id="path-1" points="0 0 0 18 19.2597468 8"></polygon>
        <linearGradient x1="7.56388395%" y1="24.7837811%" x2="93.2426032%" y2="75.3166634%" id="linearGradient-3">
            <stop stop-color="#F6D9BD" offset="0%"></stop>
            <stop stop-color="#E7B589" offset="100%"></stop>
        </linearGradient>
        <linearGradient x1="7.56388395%" y1="24.7837811%" x2="93.2426032%" y2="75.3166634%" id="linearGradient-4">
            <stop stop-color="#E9C5A3" offset="0%"></stop>
            <stop stop-color="#CF925F" offset="100%"></stop>
        </linearGradient>
        <filter x="-3.3%" y="-9.1%" width="106.6%" height="118.2%" filterUnits="objectBoundingBox" id="filter-5">
            <feGaussianBlur stdDeviation="1.98939929" in="SourceGraphic"></feGaussianBlur>
        </filter>
        <linearGradient x1="32.6806092%" y1="0%" x2="68.8265594%" y2="100%" id="linearGradient-6">
            <stop stop-color="#FFFFFF" stop-opacity="0.577077672" offset="0%"></stop>
            <stop stop-color="#FFFFFF" stop-opacity="0.668506567" offset="100%"></stop>
        </linearGradient>
    </defs>
    <g id="等级中心" stroke="none" stroke-width="1" fill="none" fill-rule="evenodd">
        <g id="切图" transform="translate(-522.000000, -276.000000)">
            <g id="分组" transform="translate(532.136709, 333.000000)">
                <g id="分组-2" transform="translate(0.000000, 1.000000)">
                    <mask id="mask-2" fill="white">
                        <use xlink:href="#path-1"></use>
                    </mask>
                    <use id="Mask" fill="#47423F" xlink:href="#path-1"></use>
                    <polygon id="路径-14-copy-2" fill="#FFFFFF" opacity="0.200000003" mask="url(#mask-2)" points="7.0956962 0 7.0956962 18 26.355443 8"></polygon>
                </g>
                <polygon id="Mask" fill="#595048" transform="translate(44.094684, 11.000000) scale(-1, 1) translate(-44.094684, -11.000000) " points="34.4648101 2 34.4648101 20 53.724557 10"></polygon>
                <polygon id="路径-14-copy-3" fill="#FFFFFF" opacity="0.100000001" points="45.6151899 2 45.6151899 16 53.724557 21 54.7382278 0"></polygon>
            </g>
            <path d="M560.997246,276.560785 L591.927774,294.177696 C592.548988,294.531517 592.932586,295.191455 592.932586,295.906365 L592.932586,331.093635 C592.932586,331.808545 592.548988,332.468483 591.927774,332.822304 L560.997246,350.439215 C560.386884,350.786855 559.638433,350.786855 559.028071,350.439215 L528.097542,332.822304 C527.476328,332.468483 527.092731,331.808545 527.092731,331.093635 L527.092731,295.906365 C527.092731,295.191455 527.476328,294.531517 528.097542,294.177696 L559.028071,276.560785 C559.638433,276.213145 560.386884,276.213145 560.997246,276.560785 Z" id="多边形-copy-2" fill="url(#linearGradient-3)"></path>
            <path d="M561.981833,284.121571 L583.900044,296.605391 C585.142473,297.313033 585.909668,298.632909 585.909668,300.062729 L585.909668,324.937271 C585.909668,326.367091 585.142473,327.686967 583.900044,328.394609 L561.981833,340.878429 C560.761109,341.57371 559.264207,341.57371 558.043483,340.878429 L536.125272,328.394609 C534.882844,327.686967 534.115648,326.367091 534.115648,324.937271 L534.115648,300.062729 C534.115648,298.632909 534.882844,297.313033 536.125272,296.605391 L558.043483,284.121571 C559.264207,283.42629 560.761109,283.42629 561.981833,284.121571 Z" id="Mask" fill-opacity="0.68" fill="url(#linearGradient-4)" filter="url(#filter-5)"></path>
            <path d="M561.981833,285.121571 L583.900044,297.605391 C585.142473,298.313033 585.909668,299.632909 585.909668,301.062729 L585.909668,325.937271 C585.909668,327.367091 585.142473,328.686967 583.900044,329.394609 L561.981833,341.878429 C560.761109,342.57371 559.264207,342.57371 558.043483,341.878429 L536.125272,329.394609 C534.882844,328.686967 534.115648,327.367091 534.115648,325.937271 L534.115648,301.062729 C534.115648,299.632909 534.882844,298.313033 536.125272,297.605391 L558.043483,285.121571 C559.264207,284.42629 560.761109,284.42629 561.981833,285.121571 Z" id="Mask-Copy" fill="url(#linearGradient-4)"></path>
            <polygon id="路径-13" fill="#FFFFFF" opacity="0.100000001" points="527.068354 295 560.519494 311 592.956962 294 559.505823 276"></polygon>
            <polygon id="路径-13-copy" fill="url(#linearGradient-6)" opacity="0.100000001" points="534.164051 298 560.519494 311 571.669873 305 543.287089 293"></polygon>
            <polygon id="路径-13-copy-2" fill="#735C4A" style="mix-blend-mode: multiply;" opacity="0.100000001" transform="translate(558.998987, 332.500000) scale(1, -1) translate(-558.998987, -332.500000) " points="532.136709 330 561 351 585.861266 328 559.505823 314"></polygon>
            <g id="分组-6" transform="translate(540.246076, 302.000000)" fill="#6F5F49">
                <path d="M2.38212658,23 L2.38212658,-0.496 L5.66033823,-0.496 L10.8118137,13.661 L10.8787159,13.661 L10.8787159,-0.496 L14.2907322,-0.496 L14.2907322,23 L11.0794228,23 L5.86104506,8.876 L5.79414278,8.876 L5.79414278,23 L2.38212658,23 Z M20.9475089,23 L20.9475089,3.068 L17.5354927,5.543 L17.5354927,1.979 L20.9475089,-0.496 L24.3595251,-0.496 L24.3595251,23 L20.9475089,23 Z M39.5128911,-0.496 L39.5128911,2.672 L32.755761,2.672 L32.755761,9.008 C33.0679732,8.69999846 33.4693829,8.44150104 33.960002,8.2325 C34.4506212,8.02349895 34.9969843,7.919 35.5991078,7.919 C36.7587531,7.919 37.7009508,8.26549654 38.4257291,8.9585 C39.1505074,9.65150346 39.5128911,10.6909931 39.5128911,12.077 L39.5128911,18.149 C39.5128911,18.941004 39.3735128,19.6449969 39.0947519,20.261 C38.815991,20.8770031 38.442457,21.4049978 37.9741387,21.845 C37.5058204,22.2850022 36.9650324,22.6204988 36.3517585,22.8515 C35.7384845,23.0825012 35.0973441,23.198 34.428318,23.198 C33.7592918,23.198 33.1181514,23.0825012 32.5048775,22.8515 C31.8916035,22.6204988 31.3508155,22.2850022 30.8824972,21.845 C30.4141789,21.4049978 30.0406449,20.8770031 29.7618841,20.261 C29.4831232,19.6449969 29.3437448,18.941004 29.3437448,18.149 L29.3437448,17.159 L32.755761,17.159 L32.755761,18.017 C32.755761,18.5890029 32.9174399,19.0344984 33.2408025,19.3535 C33.5641652,19.6725016 33.9823002,19.832 34.4952203,19.832 C35.0081403,19.832 35.4039748,19.6780015 35.6827357,19.37 C35.9614966,19.0619985 36.1008749,18.6330027 36.1008749,18.083 L36.1008749,12.572 C36.1008749,12.1099977 35.9503463,11.7140016 35.6492846,11.384 C35.3482228,11.0539983 34.9635385,10.889 34.4952203,10.889 C34.2053089,10.889 33.960003,10.9384995 33.7592952,11.0375 C33.5585874,11.1365005 33.3913333,11.2519993 33.2575281,11.384 C33.1237229,11.5160007 33.0233705,11.6589992 32.9564678,11.813 C32.8449635,12.011001 32.7780619,12.1319998 32.755761,12.176 L29.7451585,12.176 L29.7451585,-0.496 L39.5128911,-0.496 Z" id="N15"></path>
            </g>
        </g>
    </g>
</svg>