<?xml version="1.0" encoding="UTF-8"?>
<svg width="79px" height="78px" viewBox="0 0 79 78" version="1.1" xmlns="http://www.w3.org/2000/svg" xmlns:xlink="http://www.w3.org/1999/xlink">
    <!-- Generator: Sketch 52.2 (67145) - http://www.bohemiancoding.com/sketch -->
    <title>n16</title>
    <desc>Created with Sketch.</desc>
    <defs>
        <polygon id="path-1" points="0 0 0 18 19.2597468 8"></polygon>
        <linearGradient x1="7.56388395%" y1="24.7837811%" x2="93.2426032%" y2="75.3166634%" id="linearGradient-3">
            <stop stop-color="#F6D9BD" offset="0%"></stop>
            <stop stop-color="#E7B589" offset="100%"></stop>
        </linearGradient>
        <linearGradient x1="7.56388395%" y1="24.7837811%" x2="93.2426032%" y2="75.3166634%" id="linearGradient-4">
            <stop stop-color="#E9C5A3" offset="0%"></stop>
            <stop stop-color="#CF925F" offset="100%"></stop>
        </linearGradient>
        <filter x="-3.3%" y="-9.1%" width="106.6%" height="118.2%" filterUnits="objectBoundingBox" id="filter-5">
            <feGaussianBlur stdDeviation="1.98939929" in="SourceGraphic"></feGaussianBlur>
        </filter>
        <linearGradient x1="32.6806092%" y1="0%" x2="68.8265594%" y2="100%" id="linearGradient-6">
            <stop stop-color="#FFFFFF" stop-opacity="0.577077672" offset="0%"></stop>
            <stop stop-color="#FFFFFF" stop-opacity="0.668506567" offset="100%"></stop>
        </linearGradient>
    </defs>
    <g id="等级中心" stroke="none" stroke-width="1" fill="none" fill-rule="evenodd">
        <g id="切图" transform="translate(-38.000000, -383.000000)">
            <g id="分组" transform="translate(49.150380, 440.000000)">
                <g id="分组-2" transform="translate(0.000000, 1.000000)">
                    <mask id="mask-2" fill="white">
                        <use xlink:href="#path-1"></use>
                    </mask>
                    <use id="Mask" fill="#47423F" xlink:href="#path-1"></use>
                    <polygon id="路径-14-copy-2" fill="#FFFFFF" opacity="0.200000003" mask="url(#mask-2)" points="7.0956962 0 7.0956962 18 26.355443 8"></polygon>
                </g>
                <polygon id="Mask" fill="#595048" transform="translate(44.094684, 11.000000) scale(-1, 1) translate(-44.094684, -11.000000) " points="34.4648101 2 34.4648101 20 53.724557 10"></polygon>
                <polygon id="路径-14-copy-3" fill="#FFFFFF" opacity="0.100000001" points="45.6151899 2 45.6151899 16 53.724557 21 54.7382278 0"></polygon>
            </g>
            <path d="M76.9972457,383.560785 L107.927774,401.177696 C108.548988,401.531517 108.932586,402.191455 108.932586,402.906365 L108.932586,438.093635 C108.932586,438.808545 108.548988,439.468483 107.927774,439.822304 L76.9972457,457.439215 C76.3868836,457.786855 75.6384329,457.786855 75.0280708,457.439215 L44.0975424,439.822304 C43.4763282,439.468483 43.0927305,438.808545 43.0927305,438.093635 L43.0927305,402.906365 C43.0927305,402.191455 43.4763282,401.531517 44.0975424,401.177696 L75.0280708,383.560785 C75.6384329,383.213145 76.3868836,383.213145 76.9972457,383.560785 Z" id="多边形-copy-2" fill="url(#linearGradient-3)"></path>
            <path d="M77.9818331,391.121571 L99.9000443,403.605391 C101.142473,404.313033 101.909668,405.632909 101.909668,407.062729 L101.909668,431.937271 C101.909668,433.367091 101.142473,434.686967 99.9000443,435.394609 L77.9818331,447.878429 C76.761109,448.57371 75.2642075,448.57371 74.0434834,447.878429 L52.1252722,435.394609 C50.8828437,434.686967 50.1156484,433.367091 50.1156484,431.937271 L50.1156484,407.062729 C50.1156484,405.632909 50.8828437,404.313033 52.1252722,403.605391 L74.0434834,391.121571 C75.2642075,390.42629 76.761109,390.42629 77.9818331,391.121571 Z" id="Mask" fill-opacity="0.68" fill="url(#linearGradient-4)" filter="url(#filter-5)"></path>
            <path d="M77.9818331,392.121571 L99.9000443,404.605391 C101.142473,405.313033 101.909668,406.632909 101.909668,408.062729 L101.909668,432.937271 C101.909668,434.367091 101.142473,435.686967 99.9000443,436.394609 L77.9818331,448.878429 C76.761109,449.57371 75.2642075,449.57371 74.0434834,448.878429 L52.1252722,436.394609 C50.8828437,435.686967 50.1156484,434.367091 50.1156484,432.937271 L50.1156484,408.062729 C50.1156484,406.632909 50.8828437,405.313033 52.1252722,404.605391 L74.0434834,392.121571 C75.2642075,391.42629 76.761109,391.42629 77.9818331,392.121571 Z" id="Mask-Copy" fill="url(#linearGradient-4)"></path>
            <polygon id="路径-13" fill="#FFFFFF" opacity="0.100000001" points="43.0683544 402 76.5194937 418 108.956962 401 75.5058228 383"></polygon>
            <polygon id="路径-13-copy" fill="url(#linearGradient-6)" opacity="0.100000001" points="50.1640506 405 76.5194937 418 87.6698734 412 59.2870886 400"></polygon>
            <polygon id="路径-13-copy-2" fill="#735C4A" style="mix-blend-mode: multiply;" opacity="0.100000001" transform="translate(74.998987, 440.063788) scale(1, -1) translate(-74.998987, -440.063788) " points="48.1367089 438.127576 75.5058228 458 101.861266 436.127576 75.5058228 422.127576"></polygon>
            <g id="分组-6" transform="translate(56.246076, 409.000000)" fill="#6F5F49">
                <path d="M2.38212658,23 L2.38212658,-0.496 L5.66033823,-0.496 L10.8118137,13.661 L10.8787159,13.661 L10.8787159,-0.496 L14.2907322,-0.496 L14.2907322,23 L11.0794228,23 L5.86104506,8.876 L5.79414278,8.876 L5.79414278,23 L2.38212658,23 Z M20.9475089,23 L20.9475089,3.068 L17.5354927,5.543 L17.5354927,1.979 L20.9475089,-0.496 L24.3595251,-0.496 L24.3595251,23 L20.9475089,23 Z M38.275199,-0.496 L34.3948668,9.371 L34.4617691,9.437 C34.5732735,9.34899956 34.7461026,9.27750027 34.9802618,9.2225 C35.2144209,9.16749972 35.5210533,9.14 35.9001681,9.14 C36.5022916,9.14 37.059805,9.28299857 37.5727251,9.569 C38.0856451,9.85500143 38.4870548,10.2179978 38.7769661,10.658 C38.9330722,10.9000012 39.0557251,11.1419988 39.1449286,11.384 C39.2341321,11.6260012 39.312184,11.944998 39.3790866,12.341 C39.4236883,12.737002 39.4571391,13.237497 39.47944,13.8425 C39.5017409,14.447503 39.5128911,15.2119954 39.5128911,16.136 C39.5128911,16.9060038 39.5017409,17.5384975 39.47944,18.0335 C39.4571391,18.5285025 39.4236883,18.9409983 39.3790866,19.271 C39.312184,19.6230018 39.228557,19.9199988 39.128203,20.162 C39.0278491,20.4040012 38.899621,20.6569987 38.7435149,20.921 C38.2974975,21.6470036 37.7009582,22.207998 36.953879,22.604 C36.2067998,23.000002 35.3649546,23.198 34.428318,23.198 C33.4916814,23.198 32.6554113,22.994502 31.9194825,22.5875 C31.1835538,22.180498 30.5925896,21.6250035 30.1465722,20.921 C29.9681652,20.6569987 29.8287868,20.4040012 29.7284329,20.162 C29.628079,19.9199988 29.5556022,19.6230018 29.5110005,19.271 C29.4440979,18.9409983 29.3994968,18.5285025 29.3771959,18.0335 C29.3548951,17.5384975 29.3437448,16.9060038 29.3437448,16.136 C29.3437448,15.4099964 29.3548951,14.8105024 29.3771959,14.3375 C29.3994968,13.8644976 29.4329476,13.4520018 29.4775494,13.1 C29.5221511,12.7699983 29.5890527,12.4675014 29.6782562,12.1925 C29.7674597,11.9174986 29.8678121,11.6260015 29.9793165,11.318 L34.4617691,-0.496 L38.275199,-0.496 Z M36.1008749,13.793 C36.1008749,13.2869975 35.9336209,12.8800015 35.5991078,12.572 C35.2645948,12.2639985 34.8743354,12.11 34.428318,12.11 C33.9823006,12.11 33.5920412,12.2639985 33.2575281,12.572 C32.923015,12.8800015 32.755761,13.2869975 32.755761,13.793 L32.755761,18.149 C32.755761,18.6550025 32.923015,19.0619985 33.2575281,19.37 C33.5920412,19.6780015 33.9823006,19.832 34.428318,19.832 C34.8743354,19.832 35.2645948,19.6780015 35.5991078,19.37 C35.9336209,19.0619985 36.1008749,18.6550025 36.1008749,18.149 L36.1008749,13.793 Z" id="N16"></path>
            </g>
        </g>
    </g>
</svg>