<?xml version="1.0" encoding="UTF-8"?>
<svg width="79px" height="78px" viewBox="0 0 79 78" version="1.1" xmlns="http://www.w3.org/2000/svg" xmlns:xlink="http://www.w3.org/1999/xlink">
    <!-- Generator: Sketch 52.2 (67145) - http://www.bohemiancoding.com/sketch -->
    <title>n17</title>
    <desc>Created with Sketch.</desc>
    <defs>
        <polygon id="path-1" points="0 0 0 18 19.2597468 8"></polygon>
        <linearGradient x1="7.56388395%" y1="24.7837811%" x2="93.2426032%" y2="75.3166634%" id="linearGradient-3">
            <stop stop-color="#F6D9BD" offset="0%"></stop>
            <stop stop-color="#E7B589" offset="100%"></stop>
        </linearGradient>
        <linearGradient x1="7.56388395%" y1="24.7837811%" x2="93.2426032%" y2="75.3166634%" id="linearGradient-4">
            <stop stop-color="#E9C5A3" offset="0%"></stop>
            <stop stop-color="#CF925F" offset="100%"></stop>
        </linearGradient>
        <filter x="-3.3%" y="-9.1%" width="106.6%" height="118.2%" filterUnits="objectBoundingBox" id="filter-5">
            <feGaussianBlur stdDeviation="1.98939929" in="SourceGraphic"></feGaussianBlur>
        </filter>
        <linearGradient x1="32.6806092%" y1="0%" x2="68.8265594%" y2="100%" id="linearGradient-6">
            <stop stop-color="#FFFFFF" stop-opacity="0.577077672" offset="0%"></stop>
            <stop stop-color="#FFFFFF" stop-opacity="0.668506567" offset="100%"></stop>
        </linearGradient>
    </defs>
    <g id="等级中心" stroke="none" stroke-width="1" fill="none" fill-rule="evenodd">
        <g id="切图" transform="translate(-159.000000, -383.000000)">
            <g id="分组" transform="translate(170.150380, 440.000000)">
                <g id="分组-2" transform="translate(0.000000, 1.000000)">
                    <mask id="mask-2" fill="white">
                        <use xlink:href="#path-1"></use>
                    </mask>
                    <use id="Mask" fill="#47423F" xlink:href="#path-1"></use>
                    <polygon id="路径-14-copy-2" fill="#FFFFFF" opacity="0.200000003" mask="url(#mask-2)" points="7.0956962 0 7.0956962 18 26.355443 8"></polygon>
                </g>
                <polygon id="Mask" fill="#595048" transform="translate(44.094684, 11.000000) scale(-1, 1) translate(-44.094684, -11.000000) " points="34.4648101 2 34.4648101 20 53.724557 10"></polygon>
                <polygon id="路径-14-copy-3" fill="#FFFFFF" opacity="0.100000001" points="45.6151899 2 45.6151899 16 53.724557 21 54.7382278 0"></polygon>
            </g>
            <path d="M197.997246,383.560785 L228.927774,401.177696 C229.548988,401.531517 229.932586,402.191455 229.932586,402.906365 L229.932586,438.093635 C229.932586,438.808545 229.548988,439.468483 228.927774,439.822304 L197.997246,457.439215 C197.386884,457.786855 196.638433,457.786855 196.028071,457.439215 L165.097542,439.822304 C164.476328,439.468483 164.092731,438.808545 164.092731,438.093635 L164.092731,402.906365 C164.092731,402.191455 164.476328,401.531517 165.097542,401.177696 L196.028071,383.560785 C196.638433,383.213145 197.386884,383.213145 197.997246,383.560785 Z" id="多边形-copy-2" fill="url(#linearGradient-3)"></path>
            <path d="M198.981833,391.121571 L220.900044,403.605391 C222.142473,404.313033 222.909668,405.632909 222.909668,407.062729 L222.909668,431.937271 C222.909668,433.367091 222.142473,434.686967 220.900044,435.394609 L198.981833,447.878429 C197.761109,448.57371 196.264207,448.57371 195.043483,447.878429 L173.125272,435.394609 C171.882844,434.686967 171.115648,433.367091 171.115648,431.937271 L171.115648,407.062729 C171.115648,405.632909 171.882844,404.313033 173.125272,403.605391 L195.043483,391.121571 C196.264207,390.42629 197.761109,390.42629 198.981833,391.121571 Z" id="Mask" fill-opacity="0.68" fill="url(#linearGradient-4)" filter="url(#filter-5)"></path>
            <path d="M198.981833,392.121571 L220.900044,404.605391 C222.142473,405.313033 222.909668,406.632909 222.909668,408.062729 L222.909668,432.937271 C222.909668,434.367091 222.142473,435.686967 220.900044,436.394609 L198.981833,448.878429 C197.761109,449.57371 196.264207,449.57371 195.043483,448.878429 L173.125272,436.394609 C171.882844,435.686967 171.115648,434.367091 171.115648,432.937271 L171.115648,408.062729 C171.115648,406.632909 171.882844,405.313033 173.125272,404.605391 L195.043483,392.121571 C196.264207,391.42629 197.761109,391.42629 198.981833,392.121571 Z" id="Mask-Copy" fill="url(#linearGradient-4)"></path>
            <polygon id="路径-13" fill="#FFFFFF" opacity="0.100000001" points="164.068354 402 197.519494 418 229.956962 401 196.505823 383"></polygon>
            <polygon id="路径-13-copy" fill="url(#linearGradient-6)" opacity="0.100000001" points="171.164051 405 197.519494 418 208.669873 412 180.287089 400"></polygon>
            <polygon id="路径-13-copy-2" fill="#735C4A" style="mix-blend-mode: multiply;" opacity="0.100000001" transform="translate(195.998987, 440.063788) scale(1, -1) translate(-195.998987, -440.063788) " points="169.136709 438.127576 196.505823 458 222.861266 436.127576 196.505823 422.127576"></polygon>
            <g id="分组-6" transform="translate(177.246076, 409.000000)" fill="#6F5F49">
                <path d="M2.38212658,23 L2.38212658,-0.496 L5.66033823,-0.496 L10.8118137,13.661 L10.8787159,13.661 L10.8787159,-0.496 L14.2907322,-0.496 L14.2907322,23 L11.0794228,23 L5.86104506,8.876 L5.79414278,8.876 L5.79414278,23 L2.38212658,23 Z M20.9475089,23 L20.9475089,3.068 L17.5354927,5.543 L17.5354927,1.979 L20.9475089,-0.496 L24.3595251,-0.496 L24.3595251,23 L20.9475089,23 Z M30.113121,23 L36.1008749,2.672 L32.3543473,2.672 L32.3543473,5.378 L29.3437448,5.378 L29.3437448,-0.496 L39.5128911,-0.496 L39.5128911,2.87 L33.7258441,23 L30.113121,23 Z" id="N17"></path>
            </g>
        </g>
    </g>
</svg>