<?xml version="1.0" encoding="UTF-8"?>
<svg width="79px" height="78px" viewBox="0 0 79 78" version="1.1" xmlns="http://www.w3.org/2000/svg" xmlns:xlink="http://www.w3.org/1999/xlink">
    <!-- Generator: Sketch 52.2 (67145) - http://www.bohemiancoding.com/sketch -->
    <title>n18</title>
    <desc>Created with Sketch.</desc>
    <defs>
        <polygon id="path-1" points="0 0 0 18 19.2597468 8"></polygon>
        <linearGradient x1="7.56388395%" y1="24.7837811%" x2="93.2426032%" y2="75.3166634%" id="linearGradient-3">
            <stop stop-color="#F6D9BD" offset="0%"></stop>
            <stop stop-color="#E7B589" offset="100%"></stop>
        </linearGradient>
        <linearGradient x1="7.56388395%" y1="24.7837811%" x2="93.2426032%" y2="75.3166634%" id="linearGradient-4">
            <stop stop-color="#E9C5A3" offset="0%"></stop>
            <stop stop-color="#CF925F" offset="100%"></stop>
        </linearGradient>
        <filter x="-3.3%" y="-9.1%" width="106.6%" height="118.2%" filterUnits="objectBoundingBox" id="filter-5">
            <feGaussianBlur stdDeviation="1.98939929" in="SourceGraphic"></feGaussianBlur>
        </filter>
        <linearGradient x1="32.6806092%" y1="0%" x2="68.8265594%" y2="100%" id="linearGradient-6">
            <stop stop-color="#FFFFFF" stop-opacity="0.577077672" offset="0%"></stop>
            <stop stop-color="#FFFFFF" stop-opacity="0.668506567" offset="100%"></stop>
        </linearGradient>
    </defs>
    <g id="等级中心" stroke="none" stroke-width="1" fill="none" fill-rule="evenodd">
        <g id="切图" transform="translate(-287.000000, -389.000000)">
            <g id="分组" transform="translate(298.150380, 446.000000)">
                <g id="分组-2" transform="translate(0.000000, 1.000000)">
                    <mask id="mask-2" fill="white">
                        <use xlink:href="#path-1"></use>
                    </mask>
                    <use id="Mask" fill="#47423F" xlink:href="#path-1"></use>
                    <polygon id="路径-14-copy-2" fill="#FFFFFF" opacity="0.200000003" mask="url(#mask-2)" points="7.0956962 0 7.0956962 18 26.355443 8"></polygon>
                </g>
                <polygon id="Mask" fill="#595048" transform="translate(44.094684, 11.000000) scale(-1, 1) translate(-44.094684, -11.000000) " points="34.4648101 2 34.4648101 20 53.724557 10"></polygon>
                <polygon id="路径-14-copy-3" fill="#FFFFFF" opacity="0.100000001" points="45.6151899 2 45.6151899 16 53.724557 21 54.7382278 0"></polygon>
            </g>
            <path d="M325.997246,389.560785 L356.927774,407.177696 C357.548988,407.531517 357.932586,408.191455 357.932586,408.906365 L357.932586,444.093635 C357.932586,444.808545 357.548988,445.468483 356.927774,445.822304 L325.997246,463.439215 C325.386884,463.786855 324.638433,463.786855 324.028071,463.439215 L293.097542,445.822304 C292.476328,445.468483 292.092731,444.808545 292.092731,444.093635 L292.092731,408.906365 C292.092731,408.191455 292.476328,407.531517 293.097542,407.177696 L324.028071,389.560785 C324.638433,389.213145 325.386884,389.213145 325.997246,389.560785 Z" id="多边形-copy-2" fill="url(#linearGradient-3)"></path>
            <path d="M326.981833,397.121571 L348.900044,409.605391 C350.142473,410.313033 350.909668,411.632909 350.909668,413.062729 L350.909668,437.937271 C350.909668,439.367091 350.142473,440.686967 348.900044,441.394609 L326.981833,453.878429 C325.761109,454.57371 324.264207,454.57371 323.043483,453.878429 L301.125272,441.394609 C299.882844,440.686967 299.115648,439.367091 299.115648,437.937271 L299.115648,413.062729 C299.115648,411.632909 299.882844,410.313033 301.125272,409.605391 L323.043483,397.121571 C324.264207,396.42629 325.761109,396.42629 326.981833,397.121571 Z" id="Mask" fill-opacity="0.68" fill="url(#linearGradient-4)" filter="url(#filter-5)"></path>
            <path d="M326.981833,398.121571 L348.900044,410.605391 C350.142473,411.313033 350.909668,412.632909 350.909668,414.062729 L350.909668,438.937271 C350.909668,440.367091 350.142473,441.686967 348.900044,442.394609 L326.981833,454.878429 C325.761109,455.57371 324.264207,455.57371 323.043483,454.878429 L301.125272,442.394609 C299.882844,441.686967 299.115648,440.367091 299.115648,438.937271 L299.115648,414.062729 C299.115648,412.632909 299.882844,411.313033 301.125272,410.605391 L323.043483,398.121571 C324.264207,397.42629 325.761109,397.42629 326.981833,398.121571 Z" id="Mask-Copy" fill="url(#linearGradient-4)"></path>
            <polygon id="路径-13" fill="#FFFFFF" opacity="0.100000001" points="292.068354 408 325.519494 424 357.956962 407 324.505823 389"></polygon>
            <polygon id="路径-13-copy" fill="url(#linearGradient-6)" opacity="0.100000001" points="299.164051 411 325.519494 424 336.669873 418 308.287089 406"></polygon>
            <polygon id="路径-13-copy-2" fill="#735C4A" style="mix-blend-mode: multiply;" opacity="0.100000001" transform="translate(323.998987, 446.063788) scale(1, -1) translate(-323.998987, -446.063788) " points="297.136709 444.127576 324.505823 464 350.861266 442.127576 324.505823 428.127576"></polygon>
            <g id="分组-6" transform="translate(305.246076, 415.000000)" fill="#6F5F49">
                <path d="M2.38212658,23 L2.38212658,-0.496 L5.66033823,-0.496 L10.8118137,13.661 L10.8787159,13.661 L10.8787159,-0.496 L14.2907322,-0.496 L14.2907322,23 L11.0794228,23 L5.86104506,8.876 L5.79414278,8.876 L5.79414278,23 L2.38212658,23 Z M20.9475089,23 L20.9475089,3.068 L17.5354927,5.543 L17.5354927,1.979 L20.9475089,-0.496 L24.3595251,-0.496 L24.3595251,23 L20.9475089,23 Z M36.1008749,4.322 C36.1008749,3.85999769 35.9336209,3.46950159 35.5991078,3.1505 C35.2645948,2.8314984 34.8743354,2.672 34.428318,2.672 C33.9823006,2.672 33.5920412,2.8314984 33.2575281,3.1505 C32.923015,3.46950159 32.755761,3.85999769 32.755761,4.322 L32.755761,7.754 C32.755761,8.21600231 32.923015,8.6064984 33.2575281,8.9255 C33.5920412,9.24450159 33.9823006,9.404 34.428318,9.404 C34.8743354,9.404 35.2645948,9.24450159 35.5991078,8.9255 C35.9336209,8.6064984 36.1008749,8.21600231 36.1008749,7.754 L36.1008749,4.322 Z M29.3437448,5.642 C29.3437448,5.00399681 29.3660453,4.45950225 29.4106471,4.0085 C29.4552488,3.55749774 29.5333007,3.16700165 29.6448051,2.837 C29.7563094,2.50699835 29.8845375,2.21000132 30.0294932,1.946 C30.1744488,1.68199868 30.3584283,1.40700143 30.581437,1.121 C31.0274544,0.54899714 31.5849678,0.103501595 32.2539939,-0.2155 C32.9230201,-0.534501595 33.6477875,-0.694 34.428318,-0.694 C35.2088485,-0.694 35.9336159,-0.534501595 36.602642,-0.2155 C37.2716682,0.103501595 37.8291816,0.54899714 38.275199,1.121 C38.4982077,1.40700143 38.6877623,1.68199868 38.8438684,1.946 C38.9999745,2.21000132 39.1337777,2.50699835 39.245282,2.837 C39.3567864,3.16700165 39.4292631,3.55749774 39.4627144,4.0085 C39.4961657,4.45950225 39.5128911,5.00399681 39.5128911,5.642 C39.5128911,6.34600352 39.5017409,6.93999758 39.47944,7.424 C39.4571391,7.90800242 39.3902375,8.33699813 39.2787332,8.711 C39.1672288,9.08500187 38.9943997,9.42049851 38.7602405,9.7175 C38.5260814,10.0145015 38.2082987,10.3279983 37.806883,10.658 C38.2082987,10.9660015 38.5260814,11.2739985 38.7602405,11.582 C38.9943997,11.8900015 39.1672288,12.2529979 39.2787332,12.671 C39.3902375,13.0890021 39.4571391,13.600497 39.47944,14.2055 C39.5017409,14.810503 39.5128911,15.5529956 39.5128911,16.433 C39.5128911,17.1590036 39.4961657,17.7584976 39.4627144,18.2315 C39.4292631,18.7045024 39.3790869,19.1169982 39.3121843,19.469 C39.2452817,19.8210018 39.1505044,20.1179988 39.0278496,20.36 C38.9051948,20.6020012 38.7546662,20.8549987 38.5762592,21.119 C38.1971444,21.6910029 37.6619316,22.180498 36.9706046,22.5875 C36.2792776,22.994502 35.4318572,23.198 34.428318,23.198 C33.4247788,23.198 32.5773584,22.994502 31.8860314,22.5875 C31.1947044,22.180498 30.6594915,21.6910029 30.2803767,21.119 C30.1019697,20.8549987 29.9514411,20.6020012 29.8287863,20.36 C29.7061315,20.1179988 29.6113543,19.8210018 29.5444516,19.469 C29.477549,19.1169982 29.4273728,18.7045024 29.3939215,18.2315 C29.3604702,17.7584976 29.3437448,17.1590036 29.3437448,16.433 C29.3437448,15.5529956 29.3548951,14.810503 29.3771959,14.2055 C29.3994968,13.600497 29.4663984,13.0890021 29.5779028,12.671 C29.6894071,12.2529979 29.8622363,11.8900015 30.0963954,11.582 C30.3305546,11.2739985 30.6483372,10.9660015 31.0497529,10.658 C30.6483372,10.3279983 30.3305546,10.0145015 30.0963954,9.7175 C29.8622363,9.42049851 29.6894071,9.08500187 29.5779028,8.711 C29.4663984,8.33699813 29.3994968,7.90800242 29.3771959,7.424 C29.3548951,6.93999758 29.3437448,6.34600352 29.3437448,5.642 Z M36.1008749,13.562 C36.1008749,13.0999977 35.9336209,12.7095016 35.5991078,12.3905 C35.2645948,12.0714984 34.8743354,11.912 34.428318,11.912 C33.9823006,11.912 33.5920412,12.0714984 33.2575281,12.3905 C32.923015,12.7095016 32.755761,13.0999977 32.755761,13.562 L32.755761,18.182 C32.755761,18.6440023 32.923015,19.0344984 33.2575281,19.3535 C33.5920412,19.6725016 33.9823006,19.832 34.428318,19.832 C34.8743354,19.832 35.2645948,19.6725016 35.5991078,19.3535 C35.9336209,19.0344984 36.1008749,18.6440023 36.1008749,18.182 L36.1008749,13.562 Z" id="N18"></path>
            </g>
        </g>
    </g>
</svg>