<?xml version="1.0" encoding="UTF-8"?>
<svg width="79px" height="78px" viewBox="0 0 79 78" version="1.1" xmlns="http://www.w3.org/2000/svg" xmlns:xlink="http://www.w3.org/1999/xlink">
    <!-- Generator: Sketch 52.2 (67145) - http://www.bohemiancoding.com/sketch -->
    <title>n19</title>
    <desc>Created with Sketch.</desc>
    <defs>
        <polygon id="path-1" points="0 0 0 18 19.2597468 8"></polygon>
        <linearGradient x1="7.56388395%" y1="24.7837811%" x2="93.2426032%" y2="75.3166634%" id="linearGradient-3">
            <stop stop-color="#F6D9BD" offset="0%"></stop>
            <stop stop-color="#E7B589" offset="100%"></stop>
        </linearGradient>
        <linearGradient x1="7.56388395%" y1="24.7837811%" x2="93.2426032%" y2="75.3166634%" id="linearGradient-4">
            <stop stop-color="#E9C5A3" offset="0%"></stop>
            <stop stop-color="#CF925F" offset="100%"></stop>
        </linearGradient>
        <filter x="-3.3%" y="-9.1%" width="106.6%" height="118.2%" filterUnits="objectBoundingBox" id="filter-5">
            <feGaussianBlur stdDeviation="1.98939929" in="SourceGraphic"></feGaussianBlur>
        </filter>
        <linearGradient x1="32.6806092%" y1="0%" x2="68.8265594%" y2="100%" id="linearGradient-6">
            <stop stop-color="#FFFFFF" stop-opacity="0.577077672" offset="0%"></stop>
            <stop stop-color="#FFFFFF" stop-opacity="0.668506567" offset="100%"></stop>
        </linearGradient>
    </defs>
    <g id="等级中心" stroke="none" stroke-width="1" fill="none" fill-rule="evenodd">
        <g id="切图" transform="translate(-401.000000, -389.000000)">
            <g id="分组" transform="translate(412.150380, 446.000000)">
                <g id="分组-2" transform="translate(0.000000, 1.000000)">
                    <mask id="mask-2" fill="white">
                        <use xlink:href="#path-1"></use>
                    </mask>
                    <use id="Mask" fill="#47423F" xlink:href="#path-1"></use>
                    <polygon id="路径-14-copy-2" fill="#FFFFFF" opacity="0.200000003" mask="url(#mask-2)" points="7.0956962 0 7.0956962 18 26.355443 8"></polygon>
                </g>
                <polygon id="Mask" fill="#595048" transform="translate(44.094684, 11.000000) scale(-1, 1) translate(-44.094684, -11.000000) " points="34.4648101 2 34.4648101 20 53.724557 10"></polygon>
                <polygon id="路径-14-copy-3" fill="#FFFFFF" opacity="0.100000001" points="45.6151899 2 45.6151899 16 53.724557 21 54.7382278 0"></polygon>
            </g>
            <path d="M439.997246,389.560785 L470.927774,407.177696 C471.548988,407.531517 471.932586,408.191455 471.932586,408.906365 L471.932586,444.093635 C471.932586,444.808545 471.548988,445.468483 470.927774,445.822304 L439.997246,463.439215 C439.386884,463.786855 438.638433,463.786855 438.028071,463.439215 L407.097542,445.822304 C406.476328,445.468483 406.092731,444.808545 406.092731,444.093635 L406.092731,408.906365 C406.092731,408.191455 406.476328,407.531517 407.097542,407.177696 L438.028071,389.560785 C438.638433,389.213145 439.386884,389.213145 439.997246,389.560785 Z" id="多边形-copy-2" fill="url(#linearGradient-3)"></path>
            <path d="M440.981833,397.121571 L462.900044,409.605391 C464.142473,410.313033 464.909668,411.632909 464.909668,413.062729 L464.909668,437.937271 C464.909668,439.367091 464.142473,440.686967 462.900044,441.394609 L440.981833,453.878429 C439.761109,454.57371 438.264207,454.57371 437.043483,453.878429 L415.125272,441.394609 C413.882844,440.686967 413.115648,439.367091 413.115648,437.937271 L413.115648,413.062729 C413.115648,411.632909 413.882844,410.313033 415.125272,409.605391 L437.043483,397.121571 C438.264207,396.42629 439.761109,396.42629 440.981833,397.121571 Z" id="Mask" fill-opacity="0.68" fill="url(#linearGradient-4)" filter="url(#filter-5)"></path>
            <path d="M440.981833,398.121571 L462.900044,410.605391 C464.142473,411.313033 464.909668,412.632909 464.909668,414.062729 L464.909668,438.937271 C464.909668,440.367091 464.142473,441.686967 462.900044,442.394609 L440.981833,454.878429 C439.761109,455.57371 438.264207,455.57371 437.043483,454.878429 L415.125272,442.394609 C413.882844,441.686967 413.115648,440.367091 413.115648,438.937271 L413.115648,414.062729 C413.115648,412.632909 413.882844,411.313033 415.125272,410.605391 L437.043483,398.121571 C438.264207,397.42629 439.761109,397.42629 440.981833,398.121571 Z" id="Mask-Copy" fill="url(#linearGradient-4)"></path>
            <polygon id="路径-13" fill="#FFFFFF" opacity="0.100000001" points="406.068354 408 439.519494 424 471.956962 407 438.505823 389"></polygon>
            <polygon id="路径-13-copy" fill="url(#linearGradient-6)" opacity="0.100000001" points="413.164051 411 439.519494 424 450.669873 418 422.287089 406"></polygon>
            <polygon id="路径-13-copy-2" fill="#735C4A" style="mix-blend-mode: multiply;" opacity="0.100000001" transform="translate(437.998987, 446.063788) scale(1, -1) translate(-437.998987, -446.063788) " points="411.136709 444.127576 438.505823 464 464.861266 442.127576 438.505823 428.127576"></polygon>
            <g id="分组-6" transform="translate(419.246076, 415.000000)" fill="#6F5F49">
                <path d="M2.38212658,23 L2.38212658,-0.496 L5.66033823,-0.496 L10.8118137,13.661 L10.8787159,13.661 L10.8787159,-0.496 L14.2907322,-0.496 L14.2907322,23 L11.0794228,23 L5.86104506,8.876 L5.79414278,8.876 L5.79414278,23 L2.38212658,23 Z M20.9475089,23 L20.9475089,3.068 L17.5354927,5.543 L17.5354927,1.979 L20.9475089,-0.496 L24.3595251,-0.496 L24.3595251,23 L20.9475089,23 Z M30.581437,23 L34.4617691,13.133 L34.3948668,13.067 C34.2833625,13.1550004 34.1105333,13.2264997 33.8763742,13.2815 C33.642215,13.3365003 33.3355827,13.364 32.9564678,13.364 C32.3543443,13.364 31.7968309,13.2210014 31.2839109,12.935 C30.7709909,12.6489986 30.3695812,12.2860022 30.0796699,11.846 C29.9235638,11.6259989 29.8009108,11.3895013 29.7117073,11.1365 C29.6225039,10.8834987 29.5556022,10.559002 29.5110005,10.163 C29.4440979,9.76699802 29.3994968,9.26650302 29.3771959,8.6615 C29.3548951,8.05649697 29.3437448,7.29200462 29.3437448,6.368 C29.3437448,5.59799615 29.3548951,4.96550247 29.3771959,4.4705 C29.3994968,3.97549752 29.4440979,3.55200176 29.5110005,3.2 C29.5556022,2.86999835 29.628079,2.58400121 29.7284329,2.342 C29.8287868,2.09999879 29.9570149,1.84700132 30.113121,1.583 C30.5591384,0.85699637 31.1556778,0.29600198 31.902757,-0.1 C32.6498361,-0.49600198 33.4916814,-0.694 34.428318,-0.694 C35.3649546,-0.694 36.2012247,-0.490502035 36.9371534,-0.0835 C37.6730822,0.323502035 38.2640464,0.87899648 38.7100638,1.583 C38.8661699,1.84700132 38.9999731,2.09999879 39.1114775,2.342 C39.2229818,2.58400121 39.312184,2.86999835 39.3790866,3.2 C39.4236883,3.55200176 39.4571391,3.97549752 39.47944,4.4705 C39.5017409,4.96550247 39.5128911,5.59799615 39.5128911,6.368 C39.5128911,7.09400363 39.5017409,7.69349763 39.47944,8.1665 C39.4571391,8.63950236 39.4236883,9.04099835 39.3790866,9.371 C39.312184,9.72300176 39.2397072,10.0364986 39.1616542,10.3115 C39.0836011,10.5865014 38.9888238,10.8779985 38.8773195,11.186 L34.3948668,23 L30.581437,23 Z M32.755761,8.711 C32.755761,9.21700253 32.923015,9.62399846 33.2575281,9.932 C33.5920412,10.2400015 33.9823006,10.394 34.428318,10.394 C34.8743354,10.394 35.2645948,10.2400015 35.5991078,9.932 C35.9336209,9.62399846 36.1008749,9.21700253 36.1008749,8.711 L36.1008749,4.355 C36.1008749,3.84899747 35.9336209,3.44200154 35.5991078,3.134 C35.2645948,2.82599846 34.8743354,2.672 34.428318,2.672 C33.9823006,2.672 33.5920412,2.82599846 33.2575281,3.134 C32.923015,3.44200154 32.755761,3.84899747 32.755761,4.355 L32.755761,8.711 Z" id="N19"></path>
            </g>
        </g>
    </g>
</svg>