<?xml version="1.0" encoding="UTF-8"?>
<svg width="79px" height="78px" viewBox="0 0 79 78" version="1.1" xmlns="http://www.w3.org/2000/svg" xmlns:xlink="http://www.w3.org/1999/xlink">
    <!-- Generator: Sketch 52.2 (67145) - http://www.bohemiancoding.com/sketch -->
    <title>n2</title>
    <desc>Created with Sketch.</desc>
    <defs>
        <polygon id="path-1" points="0 0 0 17.7721519 19.2597468 7.89873418"></polygon>
        <linearGradient x1="7.56388395%" y1="24.7837811%" x2="93.2426032%" y2="75.3166634%" id="linearGradient-3">
            <stop stop-color="#F6D9BD" offset="0%"></stop>
            <stop stop-color="#E7B589" offset="100%"></stop>
        </linearGradient>
        <linearGradient x1="7.56388395%" y1="24.7837811%" x2="93.2426032%" y2="75.3166634%" id="linearGradient-4">
            <stop stop-color="#E9C5A3" offset="0%"></stop>
            <stop stop-color="#CF925F" offset="100%"></stop>
        </linearGradient>
        <filter x="-3.2%" y="-9.2%" width="106.4%" height="118.3%" filterUnits="objectBoundingBox" id="filter-5">
            <feGaussianBlur stdDeviation="1.97468354" in="SourceGraphic"></feGaussianBlur>
        </filter>
        <linearGradient x1="32.6806092%" y1="0%" x2="68.8265594%" y2="100%" id="linearGradient-6">
            <stop stop-color="#FFFFFF" stop-opacity="0.577077672" offset="0%"></stop>
            <stop stop-color="#FFFFFF" stop-opacity="0.668506567" offset="100%"></stop>
        </linearGradient>
    </defs>
    <g id="等级中心" stroke="none" stroke-width="1" fill="none" fill-rule="evenodd">
        <g id="切图" transform="translate(-158.000000, -59.000000)">
            <g id="分组" transform="translate(169.150380, 116.265823)">
                <g id="分组-2" transform="translate(0.000000, 0.987342)">
                    <mask id="mask-2" fill="white">
                        <use xlink:href="#path-1"></use>
                    </mask>
                    <use id="Mask" fill="#47423F" xlink:href="#path-1"></use>
                    <polygon id="路径-14-copy-2" fill="#FFFFFF" opacity="0.200000003" mask="url(#mask-2)" points="7.0956962 0 7.0956962 17.7721519 26.355443 7.89873418"></polygon>
                </g>
                <polygon id="Mask" fill="#595048" transform="translate(44.094684, 10.860759) scale(-1, 1) translate(-44.094684, -10.860759) " points="34.4648101 1.97468354 34.4648101 19.7468354 53.724557 9.87341772"></polygon>
                <polygon id="路径-14-copy-3" fill="#FFFFFF" opacity="0.100000001" points="45.6151899 1.97468354 45.6151899 15.7974684 53.724557 20.7341772 54.7382278 0"></polygon>
            </g>
            <path d="M196.980578,59.5443139 L227.925822,76.9465006 C228.547712,77.2962227 228.932586,77.954215 228.932586,78.6676937 L228.932586,113.382939 C228.932586,114.096418 228.547712,114.75441 227.925822,115.104132 L196.980578,132.506319 C196.379556,132.844306 195.64576,132.844306 195.044738,132.506319 L164.099494,115.104132 C163.477605,114.75441 163.092731,114.096418 163.092731,113.382939 L163.092731,78.6676937 C163.092731,77.954215 163.477605,77.2962227 164.099494,76.9465006 L195.044738,59.5443139 C195.64576,59.2063267 196.379556,59.2063267 196.980578,59.5443139 Z" id="多边形-copy-2" fill="url(#linearGradient-3)"></path>
            <path d="M197.948498,67.0000202 L219.896141,79.3423683 C221.13992,80.0418125 221.909668,81.3577971 221.909668,82.7847546 L221.909668,107.291195 C221.909668,108.718152 221.13992,110.034137 219.896141,110.733581 L197.948498,123.075929 C196.746454,123.751904 195.278862,123.751904 194.076818,123.075929 L172.129175,110.733581 C170.885397,110.034137 170.115648,108.718152 170.115648,107.291195 L170.115648,82.7847546 C170.115648,81.3577971 170.885397,80.0418125 172.129175,79.3423683 L194.076818,67.0000202 C195.278862,66.3240457 196.746454,66.3240457 197.948498,67.0000202 Z" id="Mask" fill-opacity="0.68" fill="url(#linearGradient-4)" filter="url(#filter-5)"></path>
            <path d="M197.948498,67.987362 L219.896141,80.3297101 C221.13992,81.0291543 221.909668,82.3451389 221.909668,83.7720964 L221.909668,108.278537 C221.909668,109.705494 221.13992,111.021479 219.896141,111.720923 L197.948498,124.063271 C196.746454,124.739245 195.278862,124.739245 194.076818,124.063271 L172.129175,111.720923 C170.885397,111.021479 170.115648,109.705494 170.115648,108.278537 L170.115648,83.7720964 C170.115648,82.3451389 170.885397,81.0291543 172.129175,80.3297101 L194.076818,67.987362 C195.278862,67.3113875 196.746454,67.3113875 197.948498,67.987362 Z" id="Mask-Copy" fill="url(#linearGradient-4)"></path>
            <polygon id="路径-13" fill="#FFFFFF" opacity="0.100000001" points="163.068354 77.7594937 196.519494 93.556962 228.956962 76.7721519 195.505823 59"></polygon>
            <polygon id="路径-13-copy" fill="url(#linearGradient-6)" opacity="0.100000001" points="170.164051 80.721519 196.519494 93.556962 207.669873 87.6329114 179.287089 75.7848101"></polygon>
            <polygon id="路径-13-copy-2" fill="#735C4A" style="mix-blend-mode: multiply;" opacity="0.100000001" transform="translate(194.998987, 115.341462) scale(1, -1) translate(-194.998987, -115.341462) " points="168.136709 113.429759 195.505823 133.050633 221.861266 111.455075 195.505823 97.6322905"></polygon>
            <g id="分组-6" transform="translate(183.341772, 83.683544)" fill="#6F5F49">
                <path d="M0.494671392,23.6962025 L0.494671392,0.497620253 L3.77288304,0.497620253 L8.92435848,14.4754177 L8.99126076,14.4754177 L8.99126076,0.497620253 L12.403277,0.497620253 L12.403277,23.6962025 L9.19196759,23.6962025 L3.97358987,9.75098734 L3.90668759,9.75098734 L3.90668759,23.6962025 L0.494671392,23.6962025 Z M15.0124658,23.6962025 L15.0124658,20.5683038 L21.1674754,9.26225316 C21.4796876,8.69749085 21.6580919,8.20333123 21.7026937,7.77975949 C21.7472954,7.35618776 21.7695959,6.82944619 21.7695959,6.19951899 C21.7695959,5.91713783 21.7640208,5.61846993 21.7528704,5.30350633 C21.7417199,4.98854273 21.6803935,4.71159613 21.5688891,4.47265823 C21.4573848,4.23372032 21.2901307,4.03279828 21.067122,3.86988608 C20.8441133,3.70697387 20.5207555,3.62551899 20.097039,3.62551899 C19.584119,3.62551899 19.1771342,3.76670745 18.8760724,4.04908861 C18.5750106,4.33146977 18.424482,4.7441745 18.424482,5.28721519 L18.424482,7.17698734 L15.0124658,7.17698734 L15.0124658,5.35237975 C15.0124658,4.65728766 15.146269,4.00564861 15.4138795,3.39744304 C15.6814899,2.78923747 16.0494488,2.25706557 16.5177671,1.80091139 C16.9637845,1.34475721 17.4989974,0.980925408 18.1234218,0.709405063 C18.7478462,0.437884718 19.4168623,0.302126582 20.1304901,0.302126582 C21.022525,0.302126582 21.7863183,0.45960602 22.4218932,0.77456962 C23.057468,1.08953322 23.5871057,1.51852893 24.0108223,2.06156962 C24.412238,2.60461031 24.7077201,3.22366741 24.8972775,3.91875949 C25.0868349,4.61385158 25.1816122,5.35237584 25.1816122,6.13435443 C25.1816122,6.69911675 25.1704619,7.17155506 25.148161,7.55168354 C25.1258601,7.93181203 25.0812591,8.29564383 25.0143565,8.64318987 C24.9474538,8.99073591 24.8359512,9.33827674 24.6798451,9.68582278 C24.523739,10.0333688 24.3118839,10.4569342 24.0442734,10.9565316 L19.0266025,20.3728101 L25.1816122,20.3728101 L25.1816122,23.6962025 L15.0124658,23.6962025 Z" id="N2"></path>
            </g>
        </g>
    </g>
</svg>