<?xml version="1.0" encoding="UTF-8"?>
<svg width="79px" height="78px" viewBox="0 0 79 78" version="1.1" xmlns="http://www.w3.org/2000/svg" xmlns:xlink="http://www.w3.org/1999/xlink">
    <!-- Generator: Sketch 52.2 (67145) - http://www.bohemiancoding.com/sketch -->
    <title>n20</title>
    <desc>Created with Sketch.</desc>
    <defs>
        <polygon id="path-1" points="0 0 0 18 19.2597468 8"></polygon>
        <linearGradient x1="7.56388395%" y1="24.7837811%" x2="93.2426032%" y2="75.3166634%" id="linearGradient-3">
            <stop stop-color="#F6D9BD" offset="0%"></stop>
            <stop stop-color="#E7B589" offset="100%"></stop>
        </linearGradient>
        <linearGradient x1="7.56388395%" y1="24.7837811%" x2="93.2426032%" y2="75.3166634%" id="linearGradient-4">
            <stop stop-color="#E9C5A3" offset="0%"></stop>
            <stop stop-color="#CF925F" offset="100%"></stop>
        </linearGradient>
        <filter x="-3.3%" y="-9.1%" width="106.6%" height="118.2%" filterUnits="objectBoundingBox" id="filter-5">
            <feGaussianBlur stdDeviation="1.98939929" in="SourceGraphic"></feGaussianBlur>
        </filter>
        <linearGradient x1="32.6806092%" y1="0%" x2="68.8265594%" y2="100%" id="linearGradient-6">
            <stop stop-color="#FFFFFF" stop-opacity="0.577077672" offset="0%"></stop>
            <stop stop-color="#FFFFFF" stop-opacity="0.668506567" offset="100%"></stop>
        </linearGradient>
    </defs>
    <g id="等级中心" stroke="none" stroke-width="1" fill="none" fill-rule="evenodd">
        <g id="切图" transform="translate(-522.000000, -389.000000)">
            <g id="分组" transform="translate(533.124051, 446.000000)">
                <g id="分组-2" transform="translate(0.000000, 1.000000)">
                    <mask id="mask-2" fill="white">
                        <use xlink:href="#path-1"></use>
                    </mask>
                    <use id="Mask" fill="#47423F" xlink:href="#path-1"></use>
                    <polygon id="路径-14-copy-2" fill="#FFFFFF" opacity="0.200000003" mask="url(#mask-2)" points="7.0956962 0 7.0956962 18 26.355443 8"></polygon>
                </g>
                <polygon id="Mask" fill="#595048" transform="translate(44.094684, 11.000000) scale(-1, 1) translate(-44.094684, -11.000000) " points="34.4648101 2 34.4648101 20 53.724557 10"></polygon>
                <polygon id="路径-14-copy-3" fill="#FFFFFF" opacity="0.100000001" points="45.6151899 2 45.6151899 16 53.724557 21 54.7382278 0"></polygon>
            </g>
            <path d="M560.997246,389.560785 L591.927774,407.177696 C592.548988,407.531517 592.932586,408.191455 592.932586,408.906365 L592.932586,444.093635 C592.932586,444.808545 592.548988,445.468483 591.927774,445.822304 L560.997246,463.439215 C560.386884,463.786855 559.638433,463.786855 559.028071,463.439215 L528.097542,445.822304 C527.476328,445.468483 527.092731,444.808545 527.092731,444.093635 L527.092731,408.906365 C527.092731,408.191455 527.476328,407.531517 528.097542,407.177696 L559.028071,389.560785 C559.638433,389.213145 560.386884,389.213145 560.997246,389.560785 Z" id="多边形-copy-2" fill="url(#linearGradient-3)"></path>
            <path d="M561.981833,397.121571 L583.900044,409.605391 C585.142473,410.313033 585.909668,411.632909 585.909668,413.062729 L585.909668,437.937271 C585.909668,439.367091 585.142473,440.686967 583.900044,441.394609 L561.981833,453.878429 C560.761109,454.57371 559.264207,454.57371 558.043483,453.878429 L536.125272,441.394609 C534.882844,440.686967 534.115648,439.367091 534.115648,437.937271 L534.115648,413.062729 C534.115648,411.632909 534.882844,410.313033 536.125272,409.605391 L558.043483,397.121571 C559.264207,396.42629 560.761109,396.42629 561.981833,397.121571 Z" id="Mask" fill-opacity="0.68" fill="url(#linearGradient-4)" filter="url(#filter-5)"></path>
            <path d="M561.981833,398.121571 L583.900044,410.605391 C585.142473,411.313033 585.909668,412.632909 585.909668,414.062729 L585.909668,438.937271 C585.909668,440.367091 585.142473,441.686967 583.900044,442.394609 L561.981833,454.878429 C560.761109,455.57371 559.264207,455.57371 558.043483,454.878429 L536.125272,442.394609 C534.882844,441.686967 534.115648,440.367091 534.115648,438.937271 L534.115648,414.062729 C534.115648,412.632909 534.882844,411.313033 536.125272,410.605391 L558.043483,398.121571 C559.264207,397.42629 560.761109,397.42629 561.981833,398.121571 Z" id="Mask-Copy" fill="url(#linearGradient-4)"></path>
            <polygon id="路径-13" fill="#FFFFFF" opacity="0.100000001" points="527.068354 408 560.519494 424 592.956962 407 559.505823 389"></polygon>
            <polygon id="路径-13-copy" fill="url(#linearGradient-6)" opacity="0.100000001" points="534.164051 411 560.519494 424 571.669873 418 543.287089 406"></polygon>
            <polygon id="路径-13-copy-2" fill="#735C4A" style="mix-blend-mode: multiply;" opacity="0.100000001" transform="translate(558.998987, 446.063788) scale(1, -1) translate(-558.998987, -446.063788) " points="532.136709 444.127576 559.505823 464 585.861266 442.127576 559.505823 428.127576"></polygon>
            <g id="分组-6" transform="translate(540.246076, 415.000000)" fill="#6F5F49">
                <path d="M2.38212658,23 L2.38212658,-0.496 L5.66033823,-0.496 L10.8118137,13.661 L10.8787159,13.661 L10.8787159,-0.496 L14.2907322,-0.496 L14.2907322,23 L11.0794228,23 L5.86104506,8.876 L5.79414278,8.876 L5.79414278,23 L2.38212658,23 Z M16.899921,23 L16.899921,19.832 L23.0549306,8.381 C23.3671428,7.80899714 23.5455471,7.30850215 23.5901489,6.8795 C23.6347506,6.45049786 23.6570511,5.91700319 23.6570511,5.279 C23.6570511,4.99299857 23.651476,4.69050159 23.6403256,4.3715 C23.6291751,4.05249841 23.5678487,3.77200121 23.4563443,3.53 C23.3448399,3.28799879 23.1775859,3.08450082 22.9545772,2.9195 C22.7315685,2.75449917 22.4082107,2.672 21.9844942,2.672 C21.4715741,2.672 21.0645894,2.81499857 20.7635276,3.101 C20.4624658,3.38700143 20.3119372,3.80499725 20.3119372,4.355 L20.3119372,6.269 L16.899921,6.269 L16.899921,4.421 C16.899921,3.71699648 17.0337242,3.05700308 17.3013347,2.441 C17.5689451,1.82499692 17.936904,1.28600231 18.4052223,0.824 C18.8512397,0.36199769 19.3864526,-0.006498625 20.010877,-0.2815 C20.6353013,-0.556501375 21.3043174,-0.694 22.0179453,-0.694 C22.9099802,-0.694 23.6737735,-0.534501595 24.3093484,-0.2155 C24.9449232,0.103501595 25.4745609,0.53799725 25.8982775,1.088 C26.2996931,1.63800275 26.5951753,2.26499648 26.7847327,2.969 C26.9742901,3.67300352 27.0690673,4.42099604 27.0690673,5.213 C27.0690673,5.78500286 27.0579171,6.26349807 27.0356162,6.6485 C27.0133153,7.03350192 26.9687143,7.40199824 26.9018116,7.754 C26.834909,8.10600176 26.7234064,8.45799824 26.5673003,8.81 C26.4111942,9.16200176 26.1993391,9.59099747 25.9317286,10.097 L20.9140577,19.634 L27.0690673,19.634 L27.0690673,23 L16.899921,23 Z M29.3437448,4.355 C29.3437448,3.56299604 29.4831232,2.85900308 29.7618841,2.243 C30.0406449,1.62699692 30.4141789,1.0990022 30.8824972,0.659 C31.3508155,0.2189978 31.8916035,-0.116498845 32.5048775,-0.3475 C33.1181514,-0.578501155 33.7592918,-0.694 34.428318,-0.694 C35.0973441,-0.694 35.7384845,-0.578501155 36.3517585,-0.3475 C36.9650324,-0.116498845 37.5058204,0.2189978 37.9741387,0.659 C38.442457,1.0990022 38.815991,1.62699692 39.0947519,2.243 C39.3735128,2.85900308 39.5128911,3.56299604 39.5128911,4.355 L39.5128911,18.149 C39.5128911,18.941004 39.3735128,19.6449969 39.0947519,20.261 C38.815991,20.8770031 38.442457,21.4049978 37.9741387,21.845 C37.5058204,22.2850022 36.9650324,22.6204988 36.3517585,22.8515 C35.7384845,23.0825012 35.0973441,23.198 34.428318,23.198 C33.7592918,23.198 33.1181514,23.0825012 32.5048775,22.8515 C31.8916035,22.6204988 31.3508155,22.2850022 30.8824972,21.845 C30.4141789,21.4049978 30.0406449,20.8770031 29.7618841,20.261 C29.4831232,19.6449969 29.3437448,18.941004 29.3437448,18.149 L29.3437448,4.355 Z M32.755761,18.149 C32.755761,18.6330024 32.9118648,19.0344984 33.224077,19.3535 C33.5362892,19.6725016 33.9376988,19.832 34.428318,19.832 C34.9189371,19.832 35.3203468,19.6725016 35.632559,19.3535 C35.9447712,19.0344984 36.1008749,18.6330024 36.1008749,18.149 L36.1008749,4.355 C36.1008749,3.87099758 35.9447712,3.46950159 35.632559,3.1505 C35.3203468,2.8314984 34.9189371,2.672 34.428318,2.672 C33.9376988,2.672 33.5362892,2.8314984 33.224077,3.1505 C32.9118648,3.46950159 32.755761,3.87099758 32.755761,4.355 L32.755761,18.149 Z" id="N20"></path>
            </g>
        </g>
    </g>
</svg>