<?xml version="1.0" encoding="UTF-8"?>
<svg width="79px" height="78px" viewBox="0 0 79 78" version="1.1" xmlns="http://www.w3.org/2000/svg" xmlns:xlink="http://www.w3.org/1999/xlink">
    <!-- Generator: Sketch 52.2 (67145) - http://www.bohemiancoding.com/sketch -->
    <title>n3</title>
    <desc>Created with Sketch.</desc>
    <defs>
        <polygon id="path-1" points="0 0 0 17.7721519 19.2597468 7.89873418"></polygon>
        <linearGradient x1="7.56388395%" y1="24.7837811%" x2="93.2426032%" y2="75.3166634%" id="linearGradient-3">
            <stop stop-color="#F6D9BD" offset="0%"></stop>
            <stop stop-color="#E7B589" offset="100%"></stop>
        </linearGradient>
        <linearGradient x1="7.56388395%" y1="24.7837811%" x2="93.2426032%" y2="75.3166634%" id="linearGradient-4">
            <stop stop-color="#E9C5A3" offset="0%"></stop>
            <stop stop-color="#CF925F" offset="100%"></stop>
        </linearGradient>
        <filter x="-3.2%" y="-9.2%" width="106.4%" height="118.3%" filterUnits="objectBoundingBox" id="filter-5">
            <feGaussianBlur stdDeviation="1.97468354" in="SourceGraphic"></feGaussianBlur>
        </filter>
        <linearGradient x1="32.6806092%" y1="0%" x2="68.8265594%" y2="100%" id="linearGradient-6">
            <stop stop-color="#FFFFFF" stop-opacity="0.577077672" offset="0%"></stop>
            <stop stop-color="#FFFFFF" stop-opacity="0.668506567" offset="100%"></stop>
        </linearGradient>
    </defs>
    <g id="等级中心" stroke="none" stroke-width="1" fill="none" fill-rule="evenodd">
        <g id="切图" transform="translate(-288.000000, -59.000000)">
            <g id="分组" transform="translate(299.150380, 116.265823)">
                <g id="分组-2" transform="translate(0.000000, 0.987342)">
                    <mask id="mask-2" fill="white">
                        <use xlink:href="#path-1"></use>
                    </mask>
                    <use id="Mask" fill="#47423F" xlink:href="#path-1"></use>
                    <polygon id="路径-14-copy-2" fill="#FFFFFF" opacity="0.200000003" mask="url(#mask-2)" points="7.0956962 0 7.0956962 17.7721519 26.355443 7.89873418"></polygon>
                </g>
                <polygon id="Mask" fill="#595048" transform="translate(44.094684, 10.860759) scale(-1, 1) translate(-44.094684, -10.860759) " points="34.4648101 1.97468354 34.4648101 19.7468354 53.724557 9.87341772"></polygon>
                <polygon id="路径-14-copy-3" fill="#FFFFFF" opacity="0.100000001" points="45.6151899 1.97468354 45.6151899 15.7974684 53.724557 20.7341772 54.7382278 0"></polygon>
            </g>
            <path d="M326.980578,59.5443139 L357.925822,76.9465006 C358.547712,77.2962227 358.932586,77.954215 358.932586,78.6676937 L358.932586,113.382939 C358.932586,114.096418 358.547712,114.75441 357.925822,115.104132 L326.980578,132.506319 C326.379556,132.844306 325.64576,132.844306 325.044738,132.506319 L294.099494,115.104132 C293.477605,114.75441 293.092731,114.096418 293.092731,113.382939 L293.092731,78.6676937 C293.092731,77.954215 293.477605,77.2962227 294.099494,76.9465006 L325.044738,59.5443139 C325.64576,59.2063267 326.379556,59.2063267 326.980578,59.5443139 Z" id="多边形-copy-2" fill="url(#linearGradient-3)"></path>
            <path d="M327.948498,67.0000202 L349.896141,79.3423683 C351.13992,80.0418125 351.909668,81.3577971 351.909668,82.7847546 L351.909668,107.291195 C351.909668,108.718152 351.13992,110.034137 349.896141,110.733581 L327.948498,123.075929 C326.746454,123.751904 325.278862,123.751904 324.076818,123.075929 L302.129175,110.733581 C300.885397,110.034137 300.115648,108.718152 300.115648,107.291195 L300.115648,82.7847546 C300.115648,81.3577971 300.885397,80.0418125 302.129175,79.3423683 L324.076818,67.0000202 C325.278862,66.3240457 326.746454,66.3240457 327.948498,67.0000202 Z" id="Mask" fill-opacity="0.68" fill="url(#linearGradient-4)" filter="url(#filter-5)"></path>
            <path d="M327.948498,67.987362 L349.896141,80.3297101 C351.13992,81.0291543 351.909668,82.3451389 351.909668,83.7720964 L351.909668,108.278537 C351.909668,109.705494 351.13992,111.021479 349.896141,111.720923 L327.948498,124.063271 C326.746454,124.739245 325.278862,124.739245 324.076818,124.063271 L302.129175,111.720923 C300.885397,111.021479 300.115648,109.705494 300.115648,108.278537 L300.115648,83.7720964 C300.115648,82.3451389 300.885397,81.0291543 302.129175,80.3297101 L324.076818,67.987362 C325.278862,67.3113875 326.746454,67.3113875 327.948498,67.987362 Z" id="Mask-Copy" fill="url(#linearGradient-4)"></path>
            <polygon id="路径-13" fill="#FFFFFF" opacity="0.100000001" points="293.068354 77.7594937 326.519494 93.556962 358.956962 76.7721519 325.505823 59"></polygon>
            <polygon id="路径-13-copy" fill="url(#linearGradient-6)" opacity="0.100000001" points="300.164051 80.721519 326.519494 93.556962 337.669873 87.6329114 309.287089 75.7848101"></polygon>
            <polygon id="路径-13-copy-2" fill="#735C4A" style="mix-blend-mode: multiply;" opacity="0.100000001" transform="translate(324.998987, 115.341462) scale(1, -1) translate(-324.998987, -115.341462) " points="298.136709 113.429759 325.505823 133.050633 351.861266 111.455075 325.505823 97.6322905"></polygon>
            <g id="分组-6" transform="translate(313.341772, 84.670886)" fill="#6F5F49">
                <path d="M1.50834228,22.7088608 L1.50834228,-0.489721519 L4.78655392,-0.489721519 L9.93802937,13.4880759 L10.0049316,13.4880759 L10.0049316,-0.489721519 L13.4169478,-0.489721519 L13.4169478,22.7088608 L10.2056385,22.7088608 L4.98726076,8.76364557 L4.92035848,8.76364557 L4.92035848,22.7088608 L1.50834228,22.7088608 Z M20.0737246,9.28496203 C21.0995646,9.28496203 21.8076067,9.16549487 22.1978719,8.92655696 C22.5881371,8.68761906 22.7832668,8.13372586 22.7832668,7.26486076 L22.7832668,4.26729114 C22.7832668,3.78941533 22.6327382,3.3984319 22.3316765,3.09432911 C22.0306147,2.79022633 21.6236299,2.63817722 21.1107099,2.63817722 C20.5085864,2.63817722 20.079301,2.82280828 19.822841,3.19207595 C19.566381,3.56134362 19.4381529,3.9197451 19.4381529,4.26729114 L19.4381529,6.15706329 L16.0261367,6.15706329 L16.0261367,4.23470886 C16.0261367,3.56133841 16.1599399,2.92056 16.4275504,2.31235443 C16.6951608,1.70414886 17.0631197,1.18283762 17.531438,0.748405063 C17.9997563,0.313972511 18.5461194,-0.033568317 19.1705438,-0.294227848 C19.7949682,-0.554887379 20.4639843,-0.68521519 21.1776122,-0.68521519 C22.1142487,-0.68521519 22.8891924,-0.50601445 23.5024663,-0.147607595 C24.1157403,0.21079926 24.5784764,0.574631065 24.8906886,0.943898734 C25.1136973,1.20455827 25.308827,1.46521389 25.4760835,1.72587342 C25.6433401,1.98653295 25.7827184,2.30149182 25.8942228,2.67075949 C26.0949306,3.3875732 26.195283,4.45191699 26.195283,5.86382278 C26.195283,6.66752301 26.1785576,7.31916206 26.1451063,7.81875949 C26.111655,8.31835693 26.028028,8.73106166 25.8942228,9.05688608 C25.7381167,9.40443212 25.5206865,9.69766969 25.2419256,9.93660759 C24.9631647,10.1755455 24.5784804,10.4362011 24.0878613,10.7185823 C24.6230822,11.0444067 25.030067,11.3485049 25.3088278,11.6308861 C25.5875887,11.9132672 25.7938687,12.2390868 25.9276739,12.6083544 C26.0614792,12.9993437 26.139531,13.4609214 26.1618319,13.9931013 C26.1841328,14.5252811 26.195283,15.2040718 26.195283,16.0294937 C26.195283,16.7897506 26.1785576,17.4196684 26.1451063,17.9192658 C26.111655,18.4188633 26.0614788,18.831568 25.9945762,19.1573924 C25.9276736,19.5049384 25.8384714,19.798176 25.7269671,20.0371139 C25.6154627,20.2760518 25.4705092,20.5258468 25.2921023,20.7865063 C24.8683857,21.3947119 24.3275977,21.8997322 23.669722,22.3015823 C23.0118463,22.7034324 22.1477005,22.9043544 21.0772587,22.9043544 C20.5420378,22.9043544 19.9733741,22.8174692 19.3712506,22.6436962 C18.7691271,22.4699232 18.222764,22.1875463 17.7321448,21.796557 C17.2415256,21.4055677 16.8345409,20.8951171 16.5111782,20.2651899 C16.1878156,19.6352627 16.0261367,18.8641565 16.0261367,17.9518481 L16.0261367,16.0620759 L19.4381529,16.0620759 L19.4381529,17.7889367 C19.4381529,18.3102558 19.5886815,18.7392515 19.8897433,19.0759367 C20.190805,19.4126219 20.5977898,19.580962 21.1107099,19.580962 C21.6236299,19.580962 22.0306147,19.4126219 22.3316765,19.0759367 C22.6327382,18.7392515 22.7832668,18.2885345 22.7832668,17.7237722 L22.7832668,14.4003797 C22.7832668,13.4880714 22.6048625,12.8907356 22.2480486,12.6083544 C22.0473408,12.4345814 21.7741592,12.3259749 21.4284957,12.2825316 C21.0828322,12.2390884 20.6312463,12.2173671 20.0737246,12.2173671 L20.0737246,9.28496203 Z" id="N3"></path>
            </g>
        </g>
    </g>
</svg>