<?xml version="1.0" encoding="UTF-8"?>
<svg width="79px" height="78px" viewBox="0 0 79 78" version="1.1" xmlns="http://www.w3.org/2000/svg" xmlns:xlink="http://www.w3.org/1999/xlink">
    <!-- Generator: Sketch 52.2 (67145) - http://www.bohemiancoding.com/sketch -->
    <title>n4</title>
    <desc>Created with Sketch.</desc>
    <defs>
        <polygon id="path-1" points="0 0 0 17.7721519 19.2597468 7.89873418"></polygon>
        <linearGradient x1="7.56388395%" y1="24.7837811%" x2="93.2426032%" y2="75.3166634%" id="linearGradient-3">
            <stop stop-color="#F6D9BD" offset="0%"></stop>
            <stop stop-color="#E7B589" offset="100%"></stop>
        </linearGradient>
        <linearGradient x1="7.56388395%" y1="24.7837811%" x2="93.2426032%" y2="75.3166634%" id="linearGradient-4">
            <stop stop-color="#E9C5A3" offset="0%"></stop>
            <stop stop-color="#CF925F" offset="100%"></stop>
        </linearGradient>
        <filter x="-3.2%" y="-9.2%" width="106.4%" height="118.3%" filterUnits="objectBoundingBox" id="filter-5">
            <feGaussianBlur stdDeviation="1.97468354" in="SourceGraphic"></feGaussianBlur>
        </filter>
        <linearGradient x1="32.6806092%" y1="0%" x2="68.8265594%" y2="100%" id="linearGradient-6">
            <stop stop-color="#FFFFFF" stop-opacity="0.577077672" offset="0%"></stop>
            <stop stop-color="#FFFFFF" stop-opacity="0.668506567" offset="100%"></stop>
        </linearGradient>
    </defs>
    <g id="等级中心" stroke="none" stroke-width="1" fill="none" fill-rule="evenodd">
        <g id="切图" transform="translate(-402.000000, -59.000000)">
            <g id="分组" transform="translate(413.150380, 116.265823)">
                <g id="分组-2" transform="translate(0.000000, 0.987342)">
                    <mask id="mask-2" fill="white">
                        <use xlink:href="#path-1"></use>
                    </mask>
                    <use id="Mask" fill="#47423F" xlink:href="#path-1"></use>
                    <polygon id="路径-14-copy-2" fill="#FFFFFF" opacity="0.200000003" mask="url(#mask-2)" points="7.0956962 0 7.0956962 17.7721519 26.355443 7.89873418"></polygon>
                </g>
                <polygon id="Mask" fill="#595048" transform="translate(44.094684, 10.860759) scale(-1, 1) translate(-44.094684, -10.860759) " points="34.4648101 1.97468354 34.4648101 19.7468354 53.724557 9.87341772"></polygon>
                <polygon id="路径-14-copy-3" fill="#FFFFFF" opacity="0.100000001" points="45.6151899 1.97468354 45.6151899 15.7974684 53.724557 20.7341772 54.7382278 0"></polygon>
            </g>
            <path d="M440.980578,59.5443139 L471.925822,76.9465006 C472.547712,77.2962227 472.932586,77.954215 472.932586,78.6676937 L472.932586,113.382939 C472.932586,114.096418 472.547712,114.75441 471.925822,115.104132 L440.980578,132.506319 C440.379556,132.844306 439.64576,132.844306 439.044738,132.506319 L408.099494,115.104132 C407.477605,114.75441 407.092731,114.096418 407.092731,113.382939 L407.092731,78.6676937 C407.092731,77.954215 407.477605,77.2962227 408.099494,76.9465006 L439.044738,59.5443139 C439.64576,59.2063267 440.379556,59.2063267 440.980578,59.5443139 Z" id="多边形-copy-2" fill="url(#linearGradient-3)"></path>
            <path d="M441.948498,67.0000202 L463.896141,79.3423683 C465.13992,80.0418125 465.909668,81.3577971 465.909668,82.7847546 L465.909668,107.291195 C465.909668,108.718152 465.13992,110.034137 463.896141,110.733581 L441.948498,123.075929 C440.746454,123.751904 439.278862,123.751904 438.076818,123.075929 L416.129175,110.733581 C414.885397,110.034137 414.115648,108.718152 414.115648,107.291195 L414.115648,82.7847546 C414.115648,81.3577971 414.885397,80.0418125 416.129175,79.3423683 L438.076818,67.0000202 C439.278862,66.3240457 440.746454,66.3240457 441.948498,67.0000202 Z" id="Mask" fill-opacity="0.68" fill="url(#linearGradient-4)" filter="url(#filter-5)"></path>
            <path d="M441.948498,67.987362 L463.896141,80.3297101 C465.13992,81.0291543 465.909668,82.3451389 465.909668,83.7720964 L465.909668,108.278537 C465.909668,109.705494 465.13992,111.021479 463.896141,111.720923 L441.948498,124.063271 C440.746454,124.739245 439.278862,124.739245 438.076818,124.063271 L416.129175,111.720923 C414.885397,111.021479 414.115648,109.705494 414.115648,108.278537 L414.115648,83.7720964 C414.115648,82.3451389 414.885397,81.0291543 416.129175,80.3297101 L438.076818,67.987362 C439.278862,67.3113875 440.746454,67.3113875 441.948498,67.987362 Z" id="Mask-Copy" fill="url(#linearGradient-4)"></path>
            <polygon id="路径-13" fill="#FFFFFF" opacity="0.100000001" points="407.068354 77.7594937 440.519494 93.556962 472.956962 76.7721519 439.505823 59"></polygon>
            <polygon id="路径-13-copy" fill="url(#linearGradient-6)" opacity="0.100000001" points="414.164051 80.721519 440.519494 93.556962 451.669873 87.6329114 423.287089 75.7848101"></polygon>
            <polygon id="路径-13-copy-2" fill="#735C4A" style="mix-blend-mode: multiply;" opacity="0.100000001" transform="translate(438.998987, 115.341462) scale(1, -1) translate(-438.998987, -115.341462) " points="412.136709 113.429759 439.505823 133.050633 465.861266 111.455075 439.505823 97.6322905"></polygon>
            <g id="分组-6" transform="translate(427.341772, 84.670886)" fill="#6F5F49">
                <path d="M1.50834228,22.7088608 L1.50834228,-0.489721519 L4.78655392,-0.489721519 L9.93802937,13.4880759 L10.0049316,13.4880759 L10.0049316,-0.489721519 L13.4169478,-0.489721519 L13.4169478,22.7088608 L10.2056385,22.7088608 L4.98726076,8.76364557 L4.92035848,8.76364557 L4.92035848,22.7088608 L1.50834228,22.7088608 Z M21.9804395,22.7088608 L21.9804395,19.2551392 L15.1898582,19.2551392 L15.1898582,16.1272405 L20.1071757,-0.489721519 L23.7198987,-0.489721519 L18.6018744,16.1272405 L21.9804395,16.1272405 L21.9804395,9.51303797 L25.3924557,9.51303797 L25.3924557,16.1272405 L27.0315615,16.1272405 L27.0315615,19.2551392 L25.3924557,19.2551392 L25.3924557,22.7088608 L21.9804395,22.7088608 Z" id="N4"></path>
            </g>
        </g>
    </g>
</svg>