<?xml version="1.0" encoding="UTF-8"?>
<svg width="79px" height="78px" viewBox="0 0 79 78" version="1.1" xmlns="http://www.w3.org/2000/svg" xmlns:xlink="http://www.w3.org/1999/xlink">
    <!-- Generator: Sketch 52.2 (67145) - http://www.bohemiancoding.com/sketch -->
    <title>n5</title>
    <desc>Created with Sketch.</desc>
    <defs>
        <polygon id="path-1" points="0 0 0 17.7721519 19.2597468 7.89873418"></polygon>
        <linearGradient x1="7.56388395%" y1="24.7837811%" x2="93.2426032%" y2="75.3166634%" id="linearGradient-3">
            <stop stop-color="#F6D9BD" offset="0%"></stop>
            <stop stop-color="#E7B589" offset="100%"></stop>
        </linearGradient>
        <linearGradient x1="7.56388395%" y1="24.7837811%" x2="93.2426032%" y2="75.3166634%" id="linearGradient-4">
            <stop stop-color="#E9C5A3" offset="0%"></stop>
            <stop stop-color="#CF925F" offset="100%"></stop>
        </linearGradient>
        <filter x="-3.2%" y="-9.2%" width="106.4%" height="118.3%" filterUnits="objectBoundingBox" id="filter-5">
            <feGaussianBlur stdDeviation="1.97468354" in="SourceGraphic"></feGaussianBlur>
        </filter>
        <linearGradient x1="32.6806092%" y1="0%" x2="68.8265594%" y2="100%" id="linearGradient-6">
            <stop stop-color="#FFFFFF" stop-opacity="0.577077672" offset="0%"></stop>
            <stop stop-color="#FFFFFF" stop-opacity="0.668506567" offset="100%"></stop>
        </linearGradient>
    </defs>
    <g id="等级中心" stroke="none" stroke-width="1" fill="none" fill-rule="evenodd">
        <g id="切图" transform="translate(-524.000000, -59.000000)">
            <g id="分组" transform="translate(535.150380, 116.265823)">
                <g id="分组-2" transform="translate(0.000000, 0.987342)">
                    <mask id="mask-2" fill="white">
                        <use xlink:href="#path-1"></use>
                    </mask>
                    <use id="Mask" fill="#47423F" xlink:href="#path-1"></use>
                    <polygon id="路径-14-copy-2" fill="#FFFFFF" opacity="0.200000003" mask="url(#mask-2)" points="6.08202532 0 6.08202532 17.7721519 25.3417722 7.89873418"></polygon>
                </g>
                <polygon id="Mask" fill="#595048" transform="translate(43.081013, 10.860759) scale(-1, 1) translate(-43.081013, -10.860759) " points="33.4511392 1.97468354 33.4511392 19.7468354 52.7108861 9.87341772"></polygon>
                <polygon id="路径-14-copy-3" fill="#FFFFFF" opacity="0.100000001" points="45.6151899 1.97468354 45.6151899 15.7974684 53.724557 20.7341772 54.7382278 0"></polygon>
            </g>
            <path d="M562.980578,59.5443139 L593.925822,76.9465006 C594.547712,77.2962227 594.932586,77.954215 594.932586,78.6676937 L594.932586,113.382939 C594.932586,114.096418 594.547712,114.75441 593.925822,115.104132 L562.980578,132.506319 C562.379556,132.844306 561.64576,132.844306 561.044738,132.506319 L530.099494,115.104132 C529.477605,114.75441 529.092731,114.096418 529.092731,113.382939 L529.092731,78.6676937 C529.092731,77.954215 529.477605,77.2962227 530.099494,76.9465006 L561.044738,59.5443139 C561.64576,59.2063267 562.379556,59.2063267 562.980578,59.5443139 Z" id="多边形-copy-2" fill="url(#linearGradient-3)"></path>
            <path d="M563.948498,67.0000202 L585.896141,79.3423683 C587.13992,80.0418125 587.909668,81.3577971 587.909668,82.7847546 L587.909668,107.291195 C587.909668,108.718152 587.13992,110.034137 585.896141,110.733581 L563.948498,123.075929 C562.746454,123.751904 561.278862,123.751904 560.076818,123.075929 L538.129175,110.733581 C536.885397,110.034137 536.115648,108.718152 536.115648,107.291195 L536.115648,82.7847546 C536.115648,81.3577971 536.885397,80.0418125 538.129175,79.3423683 L560.076818,67.0000202 C561.278862,66.3240457 562.746454,66.3240457 563.948498,67.0000202 Z" id="Mask" fill-opacity="0.68" fill="url(#linearGradient-4)" filter="url(#filter-5)"></path>
            <path d="M563.948498,67.987362 L585.896141,80.3297101 C587.13992,81.0291543 587.909668,82.3451389 587.909668,83.7720964 L587.909668,108.278537 C587.909668,109.705494 587.13992,111.021479 585.896141,111.720923 L563.948498,124.063271 C562.746454,124.739245 561.278862,124.739245 560.076818,124.063271 L538.129175,111.720923 C536.885397,111.021479 536.115648,109.705494 536.115648,108.278537 L536.115648,83.7720964 C536.115648,82.3451389 536.885397,81.0291543 538.129175,80.3297101 L560.076818,67.987362 C561.278862,67.3113875 562.746454,67.3113875 563.948498,67.987362 Z" id="Mask-Copy" fill="url(#linearGradient-4)"></path>
            <polygon id="路径-13" fill="#FFFFFF" opacity="0.100000001" points="529.068354 77.7594937 562.519494 93.556962 594.956962 76.7721519 561.505823 59"></polygon>
            <polygon id="路径-13-copy" fill="url(#linearGradient-6)" opacity="0.100000001" points="536.164051 80.721519 562.519494 93.556962 573.669873 87.6329114 545.287089 75.7848101"></polygon>
            <polygon id="路径-13-copy-2" fill="#735C4A" style="mix-blend-mode: multiply;" opacity="0.100000001" transform="translate(560.998987, 115.341462) scale(1, -1) translate(-560.998987, -115.341462) " points="534.136709 113.429759 561.505823 133.050633 587.861266 111.455075 561.505823 97.6322905"></polygon>
            <g id="分组-6" transform="translate(549.341772, 84.670886)" fill="#6F5F49">
                <path d="M1.50834228,22.7088608 L1.50834228,-0.489721519 L4.78655392,-0.489721519 L9.93802937,13.4880759 L10.0049316,13.4880759 L10.0049316,-0.489721519 L13.4169478,-0.489721519 L13.4169478,22.7088608 L10.2056385,22.7088608 L4.98726076,8.76364557 L4.92035848,8.76364557 L4.92035848,22.7088608 L1.50834228,22.7088608 Z M26.195283,-0.489721519 L26.195283,2.63817722 L19.4381529,2.63817722 L19.4381529,8.89397468 C19.7503651,8.5898719 20.1517748,8.3346466 20.6423939,8.12829114 C21.1330131,7.92193568 21.6793762,7.81875949 22.2814997,7.81875949 C23.441145,7.81875949 24.3833427,8.16087 25.108121,8.84510127 C25.8328993,9.52933254 26.195283,10.555664 26.195283,11.9241266 L26.195283,17.9192658 C26.195283,18.7012444 26.0559047,19.3963261 25.7771438,20.0045316 C25.4983829,20.6127372 25.1248489,21.1340485 24.6565306,21.568481 C24.1882123,22.0029136 23.6474243,22.3341634 23.0341504,22.5622405 C22.4208764,22.7903176 21.779736,22.9043544 21.1107099,22.9043544 C20.4416837,22.9043544 19.8005433,22.7903176 19.1872694,22.5622405 C18.5739954,22.3341634 18.0332074,22.0029136 17.5648891,21.568481 C17.0965708,21.1340485 16.7230368,20.6127372 16.4442759,20.0045316 C16.1655151,19.3963261 16.0261367,18.7012444 16.0261367,17.9192658 L16.0261367,16.9417975 L19.4381529,16.9417975 L19.4381529,17.7889367 C19.4381529,18.353699 19.5998318,18.7935554 19.9231944,19.108519 C20.2465571,19.4234826 20.6646921,19.580962 21.1776122,19.580962 C21.6905322,19.580962 22.0863667,19.4289129 22.3651276,19.1248101 C22.6438885,18.8207073 22.7832668,18.397142 22.7832668,17.8541013 L22.7832668,12.4128608 C22.7832668,11.9567066 22.6327382,11.5657231 22.3316765,11.2398987 C22.0306147,10.9140743 21.6459304,10.7511646 21.1776122,10.7511646 C20.8877008,10.7511646 20.6423949,10.8000375 20.4416871,10.8977848 C20.2409792,10.9955321 20.0737252,11.109569 19.93992,11.2398987 C19.8061148,11.3702285 19.7057624,11.511417 19.6388597,11.6634684 C19.5273554,11.858963 19.4604538,11.9784302 19.4381529,12.0218734 L16.4275504,12.0218734 L16.4275504,-0.489721519 L26.195283,-0.489721519 Z" id="N5"></path>
            </g>
        </g>
    </g>
</svg>