<?xml version="1.0" encoding="UTF-8"?>
<svg width="79px" height="78px" viewBox="0 0 79 78" version="1.1" xmlns="http://www.w3.org/2000/svg" xmlns:xlink="http://www.w3.org/1999/xlink">
    <!-- Generator: Sketch 52.2 (67145) - http://www.bohemiancoding.com/sketch -->
    <title>n6</title>
    <desc>Created with Sketch.</desc>
    <defs>
        <polygon id="path-1" points="0 0 0 18 19.2597468 8"></polygon>
        <linearGradient x1="7.56388395%" y1="24.7837811%" x2="93.2426032%" y2="75.3166634%" id="linearGradient-3">
            <stop stop-color="#F6D9BD" offset="0%"></stop>
            <stop stop-color="#E7B589" offset="100%"></stop>
        </linearGradient>
        <linearGradient x1="7.56388395%" y1="24.7837811%" x2="93.2426032%" y2="75.3166634%" id="linearGradient-4">
            <stop stop-color="#E9C5A3" offset="0%"></stop>
            <stop stop-color="#CF925F" offset="100%"></stop>
        </linearGradient>
        <filter x="-3.2%" y="-9.0%" width="106.4%" height="118.1%" filterUnits="objectBoundingBox" id="filter-5">
            <feGaussianBlur stdDeviation="1.97435897" in="SourceGraphic"></feGaussianBlur>
        </filter>
        <linearGradient x1="32.6806092%" y1="0%" x2="68.8265594%" y2="100%" id="linearGradient-6">
            <stop stop-color="#FFFFFF" stop-opacity="0.577077672" offset="0%"></stop>
            <stop stop-color="#FFFFFF" stop-opacity="0.668506567" offset="100%"></stop>
        </linearGradient>
    </defs>
    <g id="等级中心" stroke="none" stroke-width="1" fill="none" fill-rule="evenodd">
        <g id="切图" transform="translate(-37.000000, -166.000000)">
            <g id="分组" transform="translate(48.150380, 223.000000)">
                <g id="分组-2" transform="translate(0.000000, 1.000000)">
                    <mask id="mask-2" fill="white">
                        <use xlink:href="#path-1"></use>
                    </mask>
                    <use id="Mask" fill="#47423F" xlink:href="#path-1"></use>
                    <polygon id="路径-14-copy-2" fill="#FFFFFF" opacity="0.200000003" mask="url(#mask-2)" points="7.0956962 0 7.0956962 18 26.355443 8"></polygon>
                </g>
                <polygon id="Mask" fill="#595048" transform="translate(44.094684, 11.000000) scale(-1, 1) translate(-44.094684, -11.000000) " points="34.4648101 2 34.4648101 20 53.724557 10"></polygon>
                <polygon id="路径-14-copy-3" fill="#FFFFFF" opacity="0.100000001" points="45.6151899 2 45.6151899 16 53.724557 21 54.7382278 0"></polygon>
            </g>
            <path d="M75.989802,166.556546 L106.935371,184.182022 C107.551888,184.533168 107.932586,185.188117 107.932586,185.897622 L107.932586,221.102378 C107.932586,221.811883 107.551888,222.466832 106.935371,222.817978 L75.989802,240.443454 C75.3840544,240.788466 74.6412621,240.788466 74.0355145,240.443454 L43.0899458,222.817978 C42.4734281,222.466832 42.0927305,221.811883 42.0927305,221.102378 L42.0927305,185.897622 C42.0927305,185.188117 42.4734281,184.533168 43.0899458,184.182022 L74.0355145,166.556546 C74.6412621,166.211534 75.3840544,166.211534 75.989802,166.556546 Z" id="多边形-copy-2" fill="url(#linearGradient-3)"></path>
            <path d="M76.9669457,174.113091 L98.9152375,186.614045 C100.148273,187.316337 100.909668,188.626234 100.909668,190.045245 L100.909668,214.954755 C100.909668,216.373766 100.148273,217.683663 98.9152375,218.385955 L76.9669457,230.886909 C75.7554505,231.576932 74.2698659,231.576932 73.0583708,230.886909 L51.1100789,218.385955 C49.8770435,217.683663 49.1156484,216.373766 49.1156484,214.954755 L49.1156484,190.045245 C49.1156484,188.626234 49.8770435,187.316337 51.1100789,186.614045 L73.0583708,174.113091 C74.2698659,173.423068 75.7554505,173.423068 76.9669457,174.113091 Z" id="Mask" fill-opacity="0.68" fill="url(#linearGradient-4)" filter="url(#filter-5)"></path>
            <path d="M76.9669457,175.113091 L98.9152375,187.614045 C100.148273,188.316337 100.909668,189.626234 100.909668,191.045245 L100.909668,215.954755 C100.909668,217.373766 100.148273,218.683663 98.9152375,219.385955 L76.9669457,231.886909 C75.7554505,232.576932 74.2698659,232.576932 73.0583708,231.886909 L51.1100789,219.385955 C49.8770435,218.683663 49.1156484,217.373766 49.1156484,215.954755 L49.1156484,191.045245 C49.1156484,189.626234 49.8770435,188.316337 51.1100789,187.614045 L73.0583708,175.113091 C74.2698659,174.423068 75.7554505,174.423068 76.9669457,175.113091 Z" id="Mask-Copy" fill="url(#linearGradient-4)"></path>
            <polygon id="路径-13" fill="#FFFFFF" opacity="0.100000001" points="42.0683544 185 75.5194937 201 107.956962 184 74.5058228 166"></polygon>
            <polygon id="路径-13-copy" fill="url(#linearGradient-6)" opacity="0.100000001" points="49.1640506 188 75.5194937 201 86.6698734 195 58.2870886 183"></polygon>
            <polygon id="路径-13-copy-2" fill="#735C4A" style="mix-blend-mode: multiply;" opacity="0.100000001" transform="translate(73.998987, 223.063788) scale(1, -1) translate(-73.998987, -223.063788) " points="47.1367089 221.127576 74.5058228 241 100.861266 219.127576 74.5058228 205.127576"></polygon>
            <g id="分组-6" transform="translate(62.341772, 192.000000)" fill="#6F5F49">
                <path d="M1.50834228,23 L1.50834228,-0.496 L4.78655392,-0.496 L9.93802937,13.661 L10.0049316,13.661 L10.0049316,-0.496 L13.4169478,-0.496 L13.4169478,23 L10.2056385,23 L4.98726076,8.876 L4.92035848,8.876 L4.92035848,23 L1.50834228,23 Z M24.9575909,-0.496 L21.0772587,9.371 L21.144161,9.437 C21.2556654,9.34899956 21.4284945,9.27750027 21.6626537,9.2225 C21.8968128,9.16749972 22.2034452,9.14 22.58256,9.14 C23.1846835,9.14 23.7421969,9.28299857 24.255117,9.569 C24.768037,9.85500143 25.1694467,10.2179978 25.459358,10.658 C25.6154641,10.9000012 25.738117,11.1419988 25.8273205,11.384 C25.916524,11.6260012 25.9945759,11.944998 26.0614785,12.341 C26.1060802,12.737002 26.139531,13.237497 26.1618319,13.8425 C26.1841328,14.447503 26.195283,15.2119954 26.195283,16.136 C26.195283,16.9060038 26.1841328,17.5384975 26.1618319,18.0335 C26.139531,18.5285025 26.1060802,18.9409983 26.0614785,19.271 C25.9945759,19.6230018 25.9109489,19.9199988 25.8105949,20.162 C25.710241,20.4040012 25.5820129,20.6569987 25.4259068,20.921 C24.9798894,21.6470036 24.3833501,22.207998 23.6362709,22.604 C22.8891917,23.000002 22.0473465,23.198 21.1107099,23.198 C20.1740733,23.198 19.3378032,22.994502 18.6018744,22.5875 C17.8659457,22.180498 17.2749815,21.6250035 16.8289641,20.921 C16.6505571,20.6569987 16.5111787,20.4040012 16.4108248,20.162 C16.3104709,19.9199988 16.2379941,19.6230018 16.1933924,19.271 C16.1264898,18.9409983 16.0818887,18.5285025 16.0595878,18.0335 C16.037287,17.5384975 16.0261367,16.9060038 16.0261367,16.136 C16.0261367,15.4099964 16.037287,14.8105024 16.0595878,14.3375 C16.0818887,13.8644976 16.1153395,13.4520018 16.1599413,13.1 C16.204543,12.7699983 16.2714446,12.4675014 16.3606481,12.1925 C16.4498516,11.9174986 16.550204,11.6260015 16.6617084,11.318 L21.144161,-0.496 L24.9575909,-0.496 Z M22.7832668,13.793 C22.7832668,13.2869975 22.6160128,12.8800015 22.2814997,12.572 C21.9469867,12.2639985 21.5567273,12.11 21.1107099,12.11 C20.6646925,12.11 20.2744331,12.2639985 19.93992,12.572 C19.6054069,12.8800015 19.4381529,13.2869975 19.4381529,13.793 L19.4381529,18.149 C19.4381529,18.6550025 19.6054069,19.0619985 19.93992,19.37 C20.2744331,19.6780015 20.6646925,19.832 21.1107099,19.832 C21.5567273,19.832 21.9469867,19.6780015 22.2814997,19.37 C22.6160128,19.0619985 22.7832668,18.6550025 22.7832668,18.149 L22.7832668,13.793 Z" id="N6"></path>
            </g>
        </g>
    </g>
</svg>