<?xml version="1.0" encoding="UTF-8"?>
<svg width="79px" height="78px" viewBox="0 0 79 78" version="1.1" xmlns="http://www.w3.org/2000/svg" xmlns:xlink="http://www.w3.org/1999/xlink">
    <!-- Generator: Sketch 52.2 (67145) - http://www.bohemiancoding.com/sketch -->
    <title>n7</title>
    <desc>Created with Sketch.</desc>
    <defs>
        <polygon id="path-1" points="0 0 0 18 19.2597468 8"></polygon>
        <linearGradient x1="7.56388395%" y1="24.7837811%" x2="93.2426032%" y2="75.3166634%" id="linearGradient-3">
            <stop stop-color="#F6D9BD" offset="0%"></stop>
            <stop stop-color="#E7B589" offset="100%"></stop>
        </linearGradient>
        <linearGradient x1="7.56388395%" y1="24.7837811%" x2="93.2426032%" y2="75.3166634%" id="linearGradient-4">
            <stop stop-color="#E9C5A3" offset="0%"></stop>
            <stop stop-color="#CF925F" offset="100%"></stop>
        </linearGradient>
        <filter x="-3.2%" y="-9.0%" width="106.4%" height="118.1%" filterUnits="objectBoundingBox" id="filter-5">
            <feGaussianBlur stdDeviation="1.97468354" in="SourceGraphic"></feGaussianBlur>
        </filter>
        <linearGradient x1="32.6806092%" y1="0%" x2="68.8265594%" y2="100%" id="linearGradient-6">
            <stop stop-color="#FFFFFF" stop-opacity="0.577077672" offset="0%"></stop>
            <stop stop-color="#FFFFFF" stop-opacity="0.668506567" offset="100%"></stop>
        </linearGradient>
    </defs>
    <g id="等级中心" stroke="none" stroke-width="1" fill="none" fill-rule="evenodd">
        <g id="切图" transform="translate(-159.000000, -165.000000)">
            <g id="分组" transform="translate(169.136709, 222.000000)">
                <g id="分组-2" transform="translate(0.000000, 1.000000)">
                    <mask id="mask-2" fill="white">
                        <use xlink:href="#path-1"></use>
                    </mask>
                    <use id="Mask" fill="#47423F" xlink:href="#path-1"></use>
                    <polygon id="路径-14-copy-2" fill="#FFFFFF" opacity="0.200000003" mask="url(#mask-2)" points="7.0956962 0 7.0956962 18 26.355443 8"></polygon>
                </g>
                <polygon id="Mask" fill="#595048" transform="translate(44.094684, 11.000000) scale(-1, 1) translate(-44.094684, -11.000000) " points="34.4648101 2 34.4648101 20 53.724557 10"></polygon>
                <polygon id="路径-14-copy-3" fill="#FFFFFF" opacity="0.100000001" points="45.6151899 2 45.6151899 16 53.724557 21 54.7382278 0"></polygon>
            </g>
            <path d="M197.989963,165.556637 L228.935207,183.181929 C229.551826,183.533133 229.932586,184.188189 229.932586,184.897811 L229.932586,220.102189 C229.932586,220.811811 229.551826,221.466867 228.935207,221.818071 L197.989963,239.443363 C197.384115,239.788431 196.641201,239.788431 196.035354,239.443363 L165.09011,221.818071 C164.473491,221.466867 164.092731,220.811811 164.092731,220.102189 L164.092731,184.897811 C164.092731,184.188189 164.473491,183.533133 165.09011,183.181929 L196.035354,165.556637 C196.641201,165.211569 197.384115,165.211569 197.989963,165.556637 Z" id="多边形-copy-2" fill="url(#linearGradient-3)"></path>
            <path d="M198.967267,173.113274 L220.91491,185.613858 C222.148148,186.316266 222.909668,187.626378 222.909668,189.045622 L222.909668,213.954378 C222.909668,215.373622 222.148148,216.683734 220.91491,217.386142 L198.967267,229.886726 C197.755573,230.576863 196.269744,230.576863 195.05805,229.886726 L173.110407,217.386142 C171.877169,216.683734 171.115648,215.373622 171.115648,213.954378 L171.115648,189.045622 C171.115648,187.626378 171.877169,186.316266 173.110407,185.613858 L195.05805,173.113274 C196.269744,172.423137 197.755573,172.423137 198.967267,173.113274 Z" id="Mask" fill-opacity="0.68" fill="url(#linearGradient-4)" filter="url(#filter-5)"></path>
            <path d="M198.967267,174.113274 L220.91491,186.613858 C222.148148,187.316266 222.909668,188.626378 222.909668,190.045622 L222.909668,214.954378 C222.909668,216.373622 222.148148,217.683734 220.91491,218.386142 L198.967267,230.886726 C197.755573,231.576863 196.269744,231.576863 195.05805,230.886726 L173.110407,218.386142 C171.877169,217.683734 171.115648,216.373622 171.115648,214.954378 L171.115648,190.045622 C171.115648,188.626378 171.877169,187.316266 173.110407,186.613858 L195.05805,174.113274 C196.269744,173.423137 197.755573,173.423137 198.967267,174.113274 Z" id="Mask-Copy" fill="url(#linearGradient-4)"></path>
            <polygon id="路径-13" fill="#FFFFFF" opacity="0.100000001" points="164.068354 184 197.519494 200 229.956962 183 196.505823 165"></polygon>
            <polygon id="路径-13-copy" fill="url(#linearGradient-6)" opacity="0.100000001" points="171.164051 187 197.519494 200 208.669873 194 180.287089 182"></polygon>
            <polygon id="路径-13-copy-2" fill="#735C4A" style="mix-blend-mode: multiply;" opacity="0.100000001" transform="translate(195.998987, 222.063788) scale(1, -1) translate(-195.998987, -222.063788) " points="169.136709 220.127576 196.505823 240 222.861266 218.127576 196.505823 204.127576"></polygon>
            <g id="分组-6" transform="translate(184.341772, 191.000000)" fill="#6F5F49">
                <path d="M1.50834228,23 L1.50834228,-0.496 L4.78655392,-0.496 L9.93802937,13.661 L10.0049316,13.661 L10.0049316,-0.496 L13.4169478,-0.496 L13.4169478,23 L10.2056385,23 L4.98726076,8.876 L4.92035848,8.876 L4.92035848,23 L1.50834228,23 Z M16.7955129,23 L22.7832668,2.672 L19.0367392,2.672 L19.0367392,5.378 L16.0261367,5.378 L16.0261367,-0.496 L26.195283,-0.496 L26.195283,2.87 L20.4082359,23 L16.7955129,23 Z" id="N7"></path>
            </g>
        </g>
    </g>
</svg>