<?xml version="1.0" encoding="UTF-8"?>
<svg width="79px" height="78px" viewBox="0 0 79 78" version="1.1" xmlns="http://www.w3.org/2000/svg" xmlns:xlink="http://www.w3.org/1999/xlink">
    <!-- Generator: Sketch 52.2 (67145) - http://www.bohemiancoding.com/sketch -->
    <title>n8</title>
    <desc>Created with Sketch.</desc>
    <defs>
        <polygon id="path-1" points="0 0 0 18 19.2597468 8"></polygon>
        <linearGradient x1="7.56388395%" y1="24.7837811%" x2="93.2426032%" y2="75.3166634%" id="linearGradient-3">
            <stop stop-color="#F6D9BD" offset="0%"></stop>
            <stop stop-color="#E7B589" offset="100%"></stop>
        </linearGradient>
        <linearGradient x1="7.56388395%" y1="24.7837811%" x2="93.2426032%" y2="75.3166634%" id="linearGradient-4">
            <stop stop-color="#E9C5A3" offset="0%"></stop>
            <stop stop-color="#CF925F" offset="100%"></stop>
        </linearGradient>
        <filter x="-3.2%" y="-9.0%" width="106.4%" height="118.1%" filterUnits="objectBoundingBox" id="filter-5">
            <feGaussianBlur stdDeviation="1.97435897" in="SourceGraphic"></feGaussianBlur>
        </filter>
        <linearGradient x1="32.6806092%" y1="0%" x2="68.8265594%" y2="100%" id="linearGradient-6">
            <stop stop-color="#FFFFFF" stop-opacity="0.577077672" offset="0%"></stop>
            <stop stop-color="#FFFFFF" stop-opacity="0.668506567" offset="100%"></stop>
        </linearGradient>
    </defs>
    <g id="等级中心" stroke="none" stroke-width="1" fill="none" fill-rule="evenodd">
        <g id="切图" transform="translate(-288.000000, -172.000000)">
            <g id="分组" transform="translate(299.150380, 229.000000)">
                <g id="分组-2" transform="translate(0.000000, 1.000000)">
                    <mask id="mask-2" fill="white">
                        <use xlink:href="#path-1"></use>
                    </mask>
                    <use id="Mask" fill="#47423F" xlink:href="#path-1"></use>
                    <polygon id="路径-14-copy-2" fill="#FFFFFF" opacity="0.200000003" mask="url(#mask-2)" points="7.0956962 0 7.0956962 18 26.355443 8"></polygon>
                </g>
                <polygon id="Mask" fill="#595048" transform="translate(44.094684, 11.000000) scale(-1, 1) translate(-44.094684, -11.000000) " points="34.4648101 2 34.4648101 20 53.724557 10"></polygon>
                <polygon id="路径-14-copy-3" fill="#FFFFFF" opacity="0.100000001" points="45.6151899 2 45.6151899 16 53.724557 21 54.7382278 0"></polygon>
            </g>
            <path d="M326.989802,172.556546 L357.935371,190.182022 C358.551888,190.533168 358.932586,191.188117 358.932586,191.897622 L358.932586,227.102378 C358.932586,227.811883 358.551888,228.466832 357.935371,228.817978 L326.989802,246.443454 C326.384054,246.788466 325.641262,246.788466 325.035515,246.443454 L294.089946,228.817978 C293.473428,228.466832 293.092731,227.811883 293.092731,227.102378 L293.092731,191.897622 C293.092731,191.188117 293.473428,190.533168 294.089946,190.182022 L325.035515,172.556546 C325.641262,172.211534 326.384054,172.211534 326.989802,172.556546 Z" id="多边形-copy-2" fill="url(#linearGradient-3)"></path>
            <path d="M327.966946,180.113091 L349.915238,192.614045 C351.148273,193.316337 351.909668,194.626234 351.909668,196.045245 L351.909668,220.954755 C351.909668,222.373766 351.148273,223.683663 349.915238,224.385955 L327.966946,236.886909 C326.755451,237.576932 325.269866,237.576932 324.058371,236.886909 L302.110079,224.385955 C300.877044,223.683663 300.115648,222.373766 300.115648,220.954755 L300.115648,196.045245 C300.115648,194.626234 300.877044,193.316337 302.110079,192.614045 L324.058371,180.113091 C325.269866,179.423068 326.755451,179.423068 327.966946,180.113091 Z" id="Mask" fill-opacity="0.68" fill="url(#linearGradient-4)" filter="url(#filter-5)"></path>
            <path d="M327.966946,181.113091 L349.915238,193.614045 C351.148273,194.316337 351.909668,195.626234 351.909668,197.045245 L351.909668,221.954755 C351.909668,223.373766 351.148273,224.683663 349.915238,225.385955 L327.966946,237.886909 C326.755451,238.576932 325.269866,238.576932 324.058371,237.886909 L302.110079,225.385955 C300.877044,224.683663 300.115648,223.373766 300.115648,221.954755 L300.115648,197.045245 C300.115648,195.626234 300.877044,194.316337 302.110079,193.614045 L324.058371,181.113091 C325.269866,180.423068 326.755451,180.423068 327.966946,181.113091 Z" id="Mask-Copy" fill="url(#linearGradient-4)"></path>
            <polygon id="路径-13" fill="#FFFFFF" opacity="0.100000001" points="293.068354 191 326.519494 207 358.956962 190 325.505823 172"></polygon>
            <polygon id="路径-13-copy" fill="url(#linearGradient-6)" opacity="0.100000001" points="300.164051 194 326.519494 207 337.669873 201 309.287089 189"></polygon>
            <polygon id="路径-13-copy-2" fill="#735C4A" style="mix-blend-mode: multiply;" opacity="0.100000001" transform="translate(324.998987, 229.063788) scale(1, -1) translate(-324.998987, -229.063788) " points="298.136709 227.127576 325.505823 247 351.861266 225.127576 325.505823 211.127576"></polygon>
            <g id="分组-6" transform="translate(313.341772, 198.000000)" fill="#6F5F49">
                <path d="M1.50834228,23 L1.50834228,-0.496 L4.78655392,-0.496 L9.93802937,13.661 L10.0049316,13.661 L10.0049316,-0.496 L13.4169478,-0.496 L13.4169478,23 L10.2056385,23 L4.98726076,8.876 L4.92035848,8.876 L4.92035848,23 L1.50834228,23 Z M22.7832668,4.322 C22.7832668,3.85999769 22.6160128,3.46950159 22.2814997,3.1505 C21.9469867,2.8314984 21.5567273,2.672 21.1107099,2.672 C20.6646925,2.672 20.2744331,2.8314984 19.93992,3.1505 C19.6054069,3.46950159 19.4381529,3.85999769 19.4381529,4.322 L19.4381529,7.754 C19.4381529,8.21600231 19.6054069,8.6064984 19.93992,8.9255 C20.2744331,9.24450159 20.6646925,9.404 21.1107099,9.404 C21.5567273,9.404 21.9469867,9.24450159 22.2814997,8.9255 C22.6160128,8.6064984 22.7832668,8.21600231 22.7832668,7.754 L22.7832668,4.322 Z M16.0261367,5.642 C16.0261367,5.00399681 16.0484372,4.45950225 16.093039,4.0085 C16.1376407,3.55749774 16.2156926,3.16700165 16.327197,2.837 C16.4387013,2.50699835 16.5669294,2.21000132 16.7118851,1.946 C16.8568407,1.68199868 17.0408202,1.40700143 17.2638289,1.121 C17.7098463,0.54899714 18.2673597,0.103501595 18.9363858,-0.2155 C19.605412,-0.534501595 20.3301794,-0.694 21.1107099,-0.694 C21.8912404,-0.694 22.6160078,-0.534501595 23.2850339,-0.2155 C23.9540601,0.103501595 24.5115735,0.54899714 24.9575909,1.121 C25.1805996,1.40700143 25.3701542,1.68199868 25.5262603,1.946 C25.6823664,2.21000132 25.8161696,2.50699835 25.9276739,2.837 C26.0391783,3.16700165 26.111655,3.55749774 26.1451063,4.0085 C26.1785576,4.45950225 26.195283,5.00399681 26.195283,5.642 C26.195283,6.34600352 26.1841328,6.93999758 26.1618319,7.424 C26.139531,7.90800242 26.0726294,8.33699813 25.9611251,8.711 C25.8496207,9.08500187 25.6767916,9.42049851 25.4426324,9.7175 C25.2084733,10.0145015 24.8906906,10.3279983 24.4892749,10.658 C24.8906906,10.9660015 25.2084733,11.2739985 25.4426324,11.582 C25.6767916,11.8900015 25.8496207,12.2529979 25.9611251,12.671 C26.0726294,13.0890021 26.139531,13.600497 26.1618319,14.2055 C26.1841328,14.810503 26.195283,15.5529956 26.195283,16.433 C26.195283,17.1590036 26.1785576,17.7584976 26.1451063,18.2315 C26.111655,18.7045024 26.0614788,19.1169982 25.9945762,19.469 C25.9276736,19.8210018 25.8328963,20.1179988 25.7102415,20.36 C25.5875867,20.6020012 25.4370581,20.8549987 25.2586511,21.119 C24.8795363,21.6910029 24.3443235,22.180498 23.6529965,22.5875 C22.9616695,22.994502 22.1142491,23.198 21.1107099,23.198 C20.1071707,23.198 19.2597503,22.994502 18.5684233,22.5875 C17.8770963,22.180498 17.3418834,21.6910029 16.9627686,21.119 C16.7843616,20.8549987 16.633833,20.6020012 16.5111782,20.36 C16.3885234,20.1179988 16.2937462,19.8210018 16.2268435,19.469 C16.1599409,19.1169982 16.1097647,18.7045024 16.0763134,18.2315 C16.0428621,17.7584976 16.0261367,17.1590036 16.0261367,16.433 C16.0261367,15.5529956 16.037287,14.810503 16.0595878,14.2055 C16.0818887,13.600497 16.1487903,13.0890021 16.2602947,12.671 C16.371799,12.2529979 16.5446282,11.8900015 16.7787873,11.582 C17.0129465,11.2739985 17.3307291,10.9660015 17.7321448,10.658 C17.3307291,10.3279983 17.0129465,10.0145015 16.7787873,9.7175 C16.5446282,9.42049851 16.371799,9.08500187 16.2602947,8.711 C16.1487903,8.33699813 16.0818887,7.90800242 16.0595878,7.424 C16.037287,6.93999758 16.0261367,6.34600352 16.0261367,5.642 Z M22.7832668,13.562 C22.7832668,13.0999977 22.6160128,12.7095016 22.2814997,12.3905 C21.9469867,12.0714984 21.5567273,11.912 21.1107099,11.912 C20.6646925,11.912 20.2744331,12.0714984 19.93992,12.3905 C19.6054069,12.7095016 19.4381529,13.0999977 19.4381529,13.562 L19.4381529,18.182 C19.4381529,18.6440023 19.6054069,19.0344984 19.93992,19.3535 C20.2744331,19.6725016 20.6646925,19.832 21.1107099,19.832 C21.5567273,19.832 21.9469867,19.6725016 22.2814997,19.3535 C22.6160128,19.0344984 22.7832668,18.6440023 22.7832668,18.182 L22.7832668,13.562 Z" id="N8"></path>
            </g>
        </g>
    </g>
</svg>