<?xml version="1.0" encoding="UTF-8"?>
<svg width="79px" height="78px" viewBox="0 0 79 78" version="1.1" xmlns="http://www.w3.org/2000/svg" xmlns:xlink="http://www.w3.org/1999/xlink">
    <!-- Generator: Sketch 52.2 (67145) - http://www.bohemiancoding.com/sketch -->
    <title>n9</title>
    <desc>Created with Sketch.</desc>
    <defs>
        <polygon id="path-1" points="0 0 0 18 19.2597468 8"></polygon>
        <linearGradient x1="7.56388395%" y1="24.7837811%" x2="93.2426032%" y2="75.3166634%" id="linearGradient-3">
            <stop stop-color="#F6D9BD" offset="0%"></stop>
            <stop stop-color="#E7B589" offset="100%"></stop>
        </linearGradient>
        <linearGradient x1="7.56388395%" y1="24.7837811%" x2="93.2426032%" y2="75.3166634%" id="linearGradient-4">
            <stop stop-color="#E9C5A3" offset="0%"></stop>
            <stop stop-color="#CF925F" offset="100%"></stop>
        </linearGradient>
        <filter x="-3.2%" y="-9.0%" width="106.4%" height="118.1%" filterUnits="objectBoundingBox" id="filter-5">
            <feGaussianBlur stdDeviation="1.97435897" in="SourceGraphic"></feGaussianBlur>
        </filter>
        <linearGradient x1="32.6806092%" y1="0%" x2="68.8265594%" y2="100%" id="linearGradient-6">
            <stop stop-color="#FFFFFF" stop-opacity="0.577077672" offset="0%"></stop>
            <stop stop-color="#FFFFFF" stop-opacity="0.668506567" offset="100%"></stop>
        </linearGradient>
    </defs>
    <g id="等级中心" stroke="none" stroke-width="1" fill="none" fill-rule="evenodd">
        <g id="切图" transform="translate(-402.000000, -172.000000)">
            <g id="分组" transform="translate(413.150380, 229.000000)">
                <g id="分组-2" transform="translate(0.000000, 1.000000)">
                    <mask id="mask-2" fill="white">
                        <use xlink:href="#path-1"></use>
                    </mask>
                    <use id="Mask" fill="#47423F" xlink:href="#path-1"></use>
                    <polygon id="路径-14-copy-2" fill="#FFFFFF" opacity="0.200000003" mask="url(#mask-2)" points="7.0956962 0 7.0956962 18 26.355443 8"></polygon>
                </g>
                <polygon id="Mask" fill="#595048" transform="translate(44.094684, 11.000000) scale(-1, 1) translate(-44.094684, -11.000000) " points="34.4648101 2 34.4648101 20 53.724557 10"></polygon>
                <polygon id="路径-14-copy-3" fill="#FFFFFF" opacity="0.100000001" points="45.6151899 2 45.6151899 16 53.724557 21 54.7382278 0"></polygon>
            </g>
            <path d="M440.989802,172.556546 L471.935371,190.182022 C472.551888,190.533168 472.932586,191.188117 472.932586,191.897622 L472.932586,227.102378 C472.932586,227.811883 472.551888,228.466832 471.935371,228.817978 L440.989802,246.443454 C440.384054,246.788466 439.641262,246.788466 439.035515,246.443454 L408.089946,228.817978 C407.473428,228.466832 407.092731,227.811883 407.092731,227.102378 L407.092731,191.897622 C407.092731,191.188117 407.473428,190.533168 408.089946,190.182022 L439.035515,172.556546 C439.641262,172.211534 440.384054,172.211534 440.989802,172.556546 Z" id="多边形-copy-2" fill="url(#linearGradient-3)"></path>
            <path d="M441.966946,180.113091 L463.915238,192.614045 C465.148273,193.316337 465.909668,194.626234 465.909668,196.045245 L465.909668,220.954755 C465.909668,222.373766 465.148273,223.683663 463.915238,224.385955 L441.966946,236.886909 C440.755451,237.576932 439.269866,237.576932 438.058371,236.886909 L416.110079,224.385955 C414.877044,223.683663 414.115648,222.373766 414.115648,220.954755 L414.115648,196.045245 C414.115648,194.626234 414.877044,193.316337 416.110079,192.614045 L438.058371,180.113091 C439.269866,179.423068 440.755451,179.423068 441.966946,180.113091 Z" id="Mask" fill-opacity="0.68" fill="url(#linearGradient-4)" filter="url(#filter-5)"></path>
            <path d="M441.966946,181.113091 L463.915238,193.614045 C465.148273,194.316337 465.909668,195.626234 465.909668,197.045245 L465.909668,221.954755 C465.909668,223.373766 465.148273,224.683663 463.915238,225.385955 L441.966946,237.886909 C440.755451,238.576932 439.269866,238.576932 438.058371,237.886909 L416.110079,225.385955 C414.877044,224.683663 414.115648,223.373766 414.115648,221.954755 L414.115648,197.045245 C414.115648,195.626234 414.877044,194.316337 416.110079,193.614045 L438.058371,181.113091 C439.269866,180.423068 440.755451,180.423068 441.966946,181.113091 Z" id="Mask-Copy" fill="url(#linearGradient-4)"></path>
            <polygon id="路径-13" fill="#FFFFFF" opacity="0.100000001" points="407.068354 191 440.519494 207 472.956962 190 439.505823 172"></polygon>
            <polygon id="路径-13-copy" fill="url(#linearGradient-6)" opacity="0.100000001" points="414.164051 194 440.519494 207 451.669873 201 423.287089 189"></polygon>
            <polygon id="路径-13-copy-2" fill="#735C4A" style="mix-blend-mode: multiply;" opacity="0.100000001" transform="translate(438.998987, 229.063788) scale(1, -1) translate(-438.998987, -229.063788) " points="412.136709 227.127576 439.505823 247 465.861266 225.127576 439.505823 211.127576"></polygon>
            <g id="分组-6" transform="translate(427.341772, 198.000000)" fill="#6F5F49">
                <path d="M1.50834228,23 L1.50834228,-0.496 L4.78655392,-0.496 L9.93802937,13.661 L10.0049316,13.661 L10.0049316,-0.496 L13.4169478,-0.496 L13.4169478,23 L10.2056385,23 L4.98726076,8.876 L4.92035848,8.876 L4.92035848,23 L1.50834228,23 Z M17.2638289,23 L21.144161,13.133 L21.0772587,13.067 C20.9657544,13.1550004 20.7929252,13.2264997 20.5587661,13.2815 C20.3246069,13.3365003 20.0179746,13.364 19.6388597,13.364 C19.0367362,13.364 18.4792228,13.2210014 17.9663028,12.935 C17.4533828,12.6489986 17.0519731,12.2860022 16.7620618,11.846 C16.6059557,11.6259989 16.4833027,11.3895013 16.3940992,11.1365 C16.3048958,10.8834987 16.2379941,10.559002 16.1933924,10.163 C16.1264898,9.76699802 16.0818887,9.26650302 16.0595878,8.6615 C16.037287,8.05649697 16.0261367,7.29200462 16.0261367,6.368 C16.0261367,5.59799615 16.037287,4.96550247 16.0595878,4.4705 C16.0818887,3.97549752 16.1264898,3.55200176 16.1933924,3.2 C16.2379941,2.86999835 16.3104709,2.58400121 16.4108248,2.342 C16.5111787,2.09999879 16.6394068,1.84700132 16.7955129,1.583 C17.2415303,0.85699637 17.8380697,0.29600198 18.5851489,-0.1 C19.332228,-0.49600198 20.1740733,-0.694 21.1107099,-0.694 C22.0473465,-0.694 22.8836166,-0.490502035 23.6195453,-0.0835 C24.3554741,0.323502035 24.9464383,0.87899648 25.3924557,1.583 C25.5485618,1.84700132 25.682365,2.09999879 25.7938694,2.342 C25.9053737,2.58400121 25.9945759,2.86999835 26.0614785,3.2 C26.1060802,3.55200176 26.139531,3.97549752 26.1618319,4.4705 C26.1841328,4.96550247 26.195283,5.59799615 26.195283,6.368 C26.195283,7.09400363 26.1841328,7.69349763 26.1618319,8.1665 C26.139531,8.63950236 26.1060802,9.04099835 26.0614785,9.371 C25.9945759,9.72300176 25.9220991,10.0364986 25.8440461,10.3115 C25.765993,10.5865014 25.6712157,10.8779985 25.5597114,11.186 L21.0772587,23 L17.2638289,23 Z M19.4381529,8.711 C19.4381529,9.21700253 19.6054069,9.62399846 19.93992,9.932 C20.2744331,10.2400015 20.6646925,10.394 21.1107099,10.394 C21.5567273,10.394 21.9469867,10.2400015 22.2814997,9.932 C22.6160128,9.62399846 22.7832668,9.21700253 22.7832668,8.711 L22.7832668,4.355 C22.7832668,3.84899747 22.6160128,3.44200154 22.2814997,3.134 C21.9469867,2.82599846 21.5567273,2.672 21.1107099,2.672 C20.6646925,2.672 20.2744331,2.82599846 19.93992,3.134 C19.6054069,3.44200154 19.4381529,3.84899747 19.4381529,4.355 L19.4381529,8.711 Z" id="N9"></path>
            </g>
        </g>
    </g>
</svg>