<?xml version="1.0" encoding="UTF-8"?>
<svg width="21px" height="20px" viewBox="0 0 21 20" version="1.1" xmlns="http://www.w3.org/2000/svg" xmlns:xlink="http://www.w3.org/1999/xlink">
    <!-- Generator: Sketch 52.2 (67145) - http://www.bohemiancoding.com/sketch -->
    <title>nn</title>
    <desc>Created with Sketch.</desc>
    <defs>
        <polygon id="path-1" points="0 0 0 3.91836735 4.69135802 1.7414966"></polygon>
        <linearGradient x1="7.56388395%" y1="24.7837811%" x2="93.2426032%" y2="75.3166634%" id="linearGradient-3">
            <stop stop-color="#F6D9BD" offset="0%"></stop>
            <stop stop-color="#E7B589" offset="100%"></stop>
        </linearGradient>
        <linearGradient x1="7.56388395%" y1="24.7837811%" x2="93.2426032%" y2="75.3166634%" id="linearGradient-4">
            <stop stop-color="#E9C5A3" offset="0%"></stop>
            <stop stop-color="#CF925F" offset="100%"></stop>
        </linearGradient>
        <filter x="-4.0%" y="-9.4%" width="108.0%" height="118.9%" filterUnits="objectBoundingBox" id="filter-5">
            <feGaussianBlur stdDeviation="0.506666667" in="SourceGraphic"></feGaussianBlur>
        </filter>
        <linearGradient x1="32.6806092%" y1="0%" x2="68.8265594%" y2="100%" id="linearGradient-6">
            <stop stop-color="#FFFFFF" stop-opacity="0.577077672" offset="0%"></stop>
            <stop stop-color="#FFFFFF" stop-opacity="0.668506567" offset="100%"></stop>
        </linearGradient>
    </defs>
    <g id="等级中心" stroke="none" stroke-width="1" fill="none" fill-rule="evenodd">
        <g id="切图" transform="translate(-78.000000, -530.000000)">
            <g id="分组" transform="translate(81.809524, 544.285714)">
                <g id="分组-2" transform="translate(0.000000, 0.217687)">
                    <mask id="mask-2" fill="white">
                        <use xlink:href="#path-1"></use>
                    </mask>
                    <use id="Mask" fill="#47423F" xlink:href="#path-1"></use>
                    <polygon id="路径-14-copy-2" fill="#FFFFFF" opacity="0.200000003" mask="url(#mask-2)" points="1.72839506 0 1.72839506 3.91836735 6.41975309 1.7414966"></polygon>
                </g>
                <polygon id="Mask" fill="#595048" transform="translate(9.788360, 2.394558) scale(-1, 1) translate(-9.788360, -2.394558) " points="7.44268078 0.43537415 7.44268078 4.3537415 12.1340388 2.17687075"></polygon>
                <polygon id="路径-14-copy-3" fill="#FFFFFF" opacity="0.100000001" points="10.1587302 0.43537415 10.1587302 3.4829932 12.1340388 4.57142857 12.3809524 0"></polygon>
            </g>
            <path d="M88.2556305,530.149381 L95.5844318,534.432058 C95.7398991,534.522908 95.8354679,534.689445 95.8354679,534.86951 L95.8354679,543.445508 C95.8354679,543.625574 95.7398991,543.792111 95.5844318,543.88296 L88.2556305,548.165637 C88.097704,548.257924 87.902296,548.257924 87.7443695,548.165637 L80.4155682,543.88296 C80.2601009,543.792111 80.1645321,543.625574 80.1645321,543.445508 L80.1645321,534.86951 C80.1645321,534.689445 80.2601009,534.522908 80.4155682,534.432058 L87.7443695,530.149381 C87.902296,530.057095 88.097704,530.057095 88.2556305,530.149381 Z" id="多边形-copy-2" fill="url(#linearGradient-3)"></path>
            <path d="M88.5112611,532.008164 L93.6618292,535.017963 C93.9727638,535.199662 94.1639014,535.532735 94.1639014,535.892867 L94.1639014,541.933751 C94.1639014,542.293883 93.9727638,542.626956 93.6618292,542.808655 L88.5112611,545.818454 C88.1954079,546.003027 87.8045921,546.003027 87.4887389,545.818454 L82.3381708,542.808655 C82.0272362,542.626956 81.8360986,542.293883 81.8360986,541.933751 L81.8360986,535.892867 C81.8360986,535.532735 82.0272362,535.199662 82.3381708,535.017963 L87.4887389,532.008164 C87.8045921,531.823591 88.1954079,531.823591 88.5112611,532.008164 Z" id="Mask" fill-opacity="0.68" fill="url(#linearGradient-4)" filter="url(#filter-5)"></path>
            <path d="M88.6287214,532.298762 L93.7792895,535.308561 C94.0902241,535.49026 94.2813618,535.823334 94.2813618,536.183465 L94.2813618,542.224349 C94.2813618,542.584481 94.0902241,542.917554 93.7792895,543.099253 L88.6287214,546.109053 C88.3128682,546.293625 87.9220524,546.293625 87.6061993,546.109053 L82.4556312,543.099253 C82.1446965,542.917554 81.9535589,542.584481 81.9535589,542.224349 L81.9535589,536.183465 C81.9535589,535.823334 82.1446965,535.49026 82.4556312,535.308561 L87.6061993,532.298762 C87.9220524,532.114189 88.3128682,532.114189 88.6287214,532.298762 Z" id="Mask-Copy" fill="url(#linearGradient-4)"></path>
            <polygon id="路径-13" fill="#FFFFFF" opacity="0.100000001" points="80.1587302 534.639805 88.1206349 538.547009 95.8412698 534.395604 87.8793651 530"></polygon>
            <polygon id="路径-13-copy" fill="url(#linearGradient-6)" opacity="0.100000001" points="81.847619 535.372405 88.1206349 538.547009 90.7746032 537.081807 84.0190476 534.151404"></polygon>
            <polygon id="路径-13-copy-2" fill="#735C4A" style="mix-blend-mode: multiply;" opacity="0.100000001" transform="translate(87.758730, 543.934991) scale(1, -1) translate(-87.758730, -543.934991) " points="81.3650794 543.462168 87.8793651 548.315018 94.152381 542.973767 87.8793651 539.554964"></polygon>
            <g id="分组-6" transform="translate(85.000000, 536.000000)" fill="#47423F">
                <path d="M1.71428571,4.375 L0,4.375 L3,0 L6,4.375 L4.28571429,4.375 L4.28571429,7 L1.71428571,7 L1.71428571,4.375 Z" id="矩形-2"></path>
            </g>
        </g>
    </g>
</svg>