<?xml version="1.0" encoding="UTF-8"?>
<svg width="32px" height="32px" viewBox="0 0 32 32" version="1.1" xmlns="http://www.w3.org/2000/svg" xmlns:xlink="http://www.w3.org/1999/xlink">
    <!-- Generator: Sketch 52.4 (67378) - http://www.bohemiancoding.com/sketch -->
    <title>shuiyin_filled</title>
    <desc>Created with Sketch.</desc>
    <g id="等级中心" stroke="none" stroke-width="1" fill="none" fill-rule="evenodd">
        <g id="等级中心-当前页" transform="translate(-129.000000, -386.000000)">
            <g id="分组" transform="translate(131.000000, 388.000000)">
                <path d="M3.58943928,-5.89106853e-16 L24.4105607,1.45017643e-16 C25.658687,-8.42594268e-17 26.1112877,0.129955856 26.567584,0.373985785 C27.0238803,0.618015715 27.3819843,0.976119719 27.6260142,1.43241602 C27.8700441,1.88871231 28,2.34131304 28,3.58943928 L28,24.4105607 C28,25.658687 27.8700441,26.1112877 27.6260142,26.567584 C27.3819843,27.0238803 27.0238803,27.3819843 26.567584,27.6260142 C26.1112877,27.8700441 25.658687,28 24.4105607,28 L3.58943928,28 C2.34131304,28 1.88871231,27.8700441 1.43241602,27.6260142 C0.976119719,27.3819843 0.618015715,27.0238803 0.373985785,26.567584 C0.129955856,26.1112877 -3.87916259e-16,25.658687 -5.40767639e-16,24.4105607 L9.66784287e-17,3.58943928 C-5.61729512e-17,2.34131304 0.129955856,1.88871231 0.373985785,1.43241602 C0.618015715,0.976119719 0.976119719,0.618015715 1.43241602,0.373985785 C1.88871231,0.129955856 2.34131304,-3.59829783e-16 3.58943928,-5.89106853e-16 Z" id="矩形" fill="#EAC788"></path>
                <circle id="椭圆形" fill="#000000" cx="14" cy="14" r="6.53333333"></circle>
                <path d="M16.6197362,11.7053963 C15.8553314,11.7053963 15.235451,11.0856388 15.235451,10.3207663 C15.235451,9.55684066 15.8553314,8.93731994 16.6197362,8.93731994 C17.384141,8.93731994 18.0037847,9.55684066 18.0037847,10.3207663 C18.0037847,11.0856388 17.384141,11.7053963 16.6197362,11.7053963 M17.0161425,14.5827232 C17.0161425,14.5827232 15.8068015,18.451236 15.5679398,19.2098352 C15.2253899,20.2882558 14.0388935,20.7768652 13.0462799,20.3261325 C12.0440787,19.8706652 12.2163006,18.9272987 12.303536,18.6503254 L12.8190181,16.993575 C12.958216,16.5446178 13.0002357,16.2890684 12.7942797,15.977651 C12.5626383,15.6485972 12.1341549,15.6684824 11.981345,15.6684824 L11.3873866,15.6686008 C11.1597696,15.6686008 10.9758296,15.4853723 10.9758296,15.2572835 C10.9758296,15.0296683 11.1597696,14.8450194 11.3873866,14.8450194 L13.8142357,14.8450194 C14.3718559,14.8450194 14.6438599,15.1541879 14.3827455,15.6690742 L13.0798958,18.2446896 C12.828724,18.7367316 12.8207935,19.3500974 13.3785321,19.5846961 C14.0703788,19.8768202 14.6547495,19.3730601 14.8609423,18.7089159 C14.9578837,18.3979719 16.2318523,14.331435 16.2318523,14.331435 C16.3445363,13.9787083 16.4355594,13.5625381 16.2122036,13.2467411 C16.0035251,12.9511845 15.5434382,12.9392297 15.3900364,12.9392297 L10.8043179,12.9392297 C10.5769376,12.9392297 10.3928792,12.7546992 10.3928792,12.5269655 C10.3928792,12.2994686 10.5769376,12.1150564 10.8043179,12.1150564 L15.3992689,12.1150564 C15.5755152,12.1150564 16.390107,12.099669 16.8717365,12.7177694 C17.2332249,13.1790365 17.2696815,13.7928757 17.0161425,14.5827232 M9.2730226,13.8934857 C9.2730226,13.6655153 9.45802797,13.4808664 9.68493475,13.4808664 L14.8204613,13.4808664 C15.0480783,13.4808664 15.2323735,13.6655153 15.2323735,13.8934857 C15.2323735,14.1213377 15.0480783,14.3050397 14.8204613,14.3050397 L9.68493475,14.3050397 C9.45802797,14.3050397 9.2730226,14.1213377 9.2730226,13.8934857 M14.4666667,6.53333333 C10.0850103,6.53333333 6.53333333,10.0851022 6.53333333,14.4667258 C6.53333333,18.847876 10.0850103,22.4 14.4666667,22.4 C18.8482046,22.4 22.4,18.847876 22.4,14.4667258 C22.4,10.0851022 18.8482046,6.53333333 14.4666667,6.53333333" id="Fill-1" fill="#EAC788"></path>
            </g>
        </g>
    </g>
</svg>