<?xml version="1.0" encoding="UTF-8"?>
<svg width="32px" height="32px" viewBox="0 0 32 32" version="1.1" xmlns="http://www.w3.org/2000/svg" xmlns:xlink="http://www.w3.org/1999/xlink">
    <!-- Generator: Sketch 52.4 (67378) - http://www.bohemiancoding.com/sketch -->
    <title>分组</title>
    <desc>Created with Sketch.</desc>
    <g id="等级中心" stroke="none" stroke-width="1" fill="none" fill-rule="evenodd">
        <g id="已完成页查看" transform="translate(-129.000000, -386.000000)">
            <g id="分组" transform="translate(131.000000, 388.000000)">
                <path d="M3.58943928,-5.89106853e-16 L24.4105607,1.45017643e-16 C25.658687,-8.42594268e-17 26.1112877,0.129955856 26.567584,0.373985785 C27.0238803,0.618015715 27.3819843,0.976119719 27.6260142,1.43241602 C27.8700441,1.88871231 28,2.34131304 28,3.58943928 L28,24.4105607 C28,25.658687 27.8700441,26.1112877 27.6260142,26.567584 C27.3819843,27.0238803 27.0238803,27.3819843 26.567584,27.6260142 C26.1112877,27.8700441 25.658687,28 24.4105607,28 L3.58943928,28 C2.34131304,28 1.88871231,27.8700441 1.43241602,27.6260142 C0.976119719,27.3819843 0.618015715,27.0238803 0.373985785,26.567584 C0.129955856,26.1112877 -3.87916259e-16,25.658687 -5.40767639e-16,24.4105607 L9.66784287e-17,3.58943928 C-5.61729512e-17,2.34131304 0.129955856,1.88871231 0.373985785,1.43241602 C0.618015715,0.976119719 0.976119719,0.618015715 1.43241602,0.373985785 C1.88871231,0.129955856 2.34131304,-3.59829783e-16 3.58943928,-5.89106853e-16 Z" id="矩形" fill="#D8D8D8"></path>
                <circle id="椭圆形" fill="#000000" cx="14" cy="14" r="7"></circle>
                <path d="M16.8068602,11.541496 C15.9878551,11.541496 15.3236975,10.8774702 15.3236975,10.0579639 C15.3236975,9.23947213 15.9878551,8.57569993 16.8068602,8.57569993 C17.6258654,8.57569993 18.2897693,9.23947213 18.2897693,10.0579639 C18.2897693,10.8774702 17.6258654,11.541496 16.8068602,11.541496 M17.2315812,14.6243463 C17.2315812,14.6243463 15.9358588,18.7691814 15.6799355,19.5819663 C15.3129178,20.7374169 14.0416716,21.260927 12.9781571,20.7779991 C11.9043701,20.2899984 12.0888935,19.2792486 12.1823601,18.9824915 L12.7346622,17.2074018 C12.8838028,16.7263762 12.928824,16.4525733 12.7081568,16.1189117 C12.4599696,15.7663541 12.0008803,15.7876597 11.8371553,15.7876597 L11.2007714,15.7877866 C10.956896,15.7877866 10.7598174,15.5914703 10.7598174,15.3470895 C10.7598174,15.103216 10.956896,14.9053779 11.2007714,14.9053779 L13.8009668,14.9053779 C14.398417,14.9053779 14.6898499,15.2366299 14.4100844,15.7882938 L13.014174,18.5478817 C12.7450615,19.0750696 12.7365645,19.7322472 13.3341415,19.983603 C14.0754058,20.296593 14.7015174,19.7568501 14.9224382,19.045267 C15.026304,18.7121127 16.3912703,14.355109 16.3912703,14.355109 C16.5120032,13.9771874 16.6095279,13.5312908 16.3702181,13.1929369 C16.146634,12.8762691 15.6536838,12.8634604 15.4893247,12.8634604 L10.5760548,12.8634604 C10.3324332,12.8634604 10.1352277,12.6657491 10.1352277,12.4217488 C10.1352277,12.1780021 10.3324332,11.9804176 10.5760548,11.9804176 L15.4992167,11.9804176 C15.688052,11.9804176 16.560829,11.9639311 17.0768605,12.6261815 C17.4641696,13.1203963 17.5032302,13.7780811 17.2315812,14.6243463 M8.93538136,13.8858776 C8.93538136,13.6416236 9.1336014,13.4437855 9.3767158,13.4437855 L14.8790657,13.4437855 C15.122941,13.4437855 15.3204002,13.6416236 15.3204002,13.8858776 C15.3204002,14.1300047 15.122941,14.3268282 14.8790657,14.3268282 L9.3767158,14.3268282 C9.1336014,14.3268282 8.93538136,14.1300047 8.93538136,13.8858776 M14.5,6 C9.80536823,6 6,9.80546666 6,14.5000634 C6,19.1941529 9.80536823,23 14.5,23 C19.194505,23 23,19.1941529 23,14.5000634 C23,9.80546666 19.194505,6 14.5,6" id="Fill-1" fill="#D8D8D8"></path>
            </g>
        </g>
    </g>
</svg>